<?xml version="1.0" standalone="no"?>
<!DOCTYPE svg PUBLIC "-//W3C//DTD SVG 1.1//EN" "http://www.w3.org/Graphics/SVG/1.1/DTD/svg11.dtd" >
<svg xmlns="http://www.w3.org/2000/svg">
<metadata>Generated by IcoMoon</metadata>
<defs>
<font id="icomoon" horiz-adv-x="1024">
<font-face units-per-em="1024" ascent="960" descent="-64" />
<missing-glyph horiz-adv-x="1024" />
<glyph unicode="&#x20;" horiz-adv-x="512" d="" />
<glyph unicode="&#xe024;" glyph-name="flag1" horiz-adv-x="896" d="M432 928h-352c-8.832 0-16-7.168-16-16v-480c0-8.832 7.168-16 16-16h352.064c8.032 0 47.936-2.368 47.936-48 0-8.832 7.168-16 16-16s16 7.168 16 16v480.512c-0.864 27.488-18.688 79.488-80 79.488zM480 433.408c-16.032 10.784-34.816 14.592-48 14.592h-336v448h336c44.672 0 47.808-43.616 48-48v-414.592zM842.528 288h-442.944c0.192-0.032-22.496-0.288-36.48 13.408-8.032 7.904-12.128 19.52-12.128 34.592 0 8.832-7.168 16-16 16s-16-7.168-16-16c0-24.128 7.392-43.52 22.016-57.696 21.984-21.28 52.736-22.304 58.208-22.304 0.48 0 443.328 0 443.328 0 12.448 0 23.008 5.024 29.792 14.176 8.992 12.128 8.8 27.616 5.92 37.184-18.016 59.296-113.312 188.256-140.128 223.872 25.824 39.712 122.080 190.080 140.128 249.376 2.912 9.568 3.104 25.024-5.92 37.184-6.784 9.184-17.344 14.208-29.792 14.208h-281.184c-8.832 0-16-7.168-16-16s7.168-16 16-16h281.184c3.168 0 3.808-0.896 4.064-1.248 1.504-1.984 1.76-6.304 0.992-8.8-19.072-62.752-141.184-248.704-142.432-250.592-3.744-5.696-3.456-13.12 0.672-18.528 1.216-1.6 122.848-160.576 141.76-222.752 0.736-2.528 0.512-6.816-0.992-8.832-0.256-0.352-0.896-1.248-4.064-1.248zM32-48v992c0 8.832-7.168 16-16 16s-16-7.168-16-16v-992c0-8.832 7.168-16 16-16s16 7.168 16 16z" />
<glyph unicode="&#xe03f;" glyph-name="anchor1" horiz-adv-x="1120" d="M25.984 355.328l70.016 70.048v-25.376c0-242.848 221.152-464 464-464s464 221.152 464 464v24.704l70.688-70.688c3.136-3.136 7.232-4.672 11.328-4.672s8.192 1.568 11.328 4.672c6.24 6.24 6.24 16.384 0 22.624l-96.576 96.576c-2.944 4-7.424 6.784-12.768 6.784-1.44 0-2.688-0.448-4.032-0.8-2.944-0.608-5.792-1.728-7.968-3.872l-97.344-97.344c-6.24-6.24-6.24-16.384 0-22.624s16.384-6.24 22.624 0l70.72 70.688v-26.048c0-220.736-196.32-421.664-416-431.104v607.104h272c8.832 0 16 7.168 16 16s-7.168 16-16 16h-272v129.632c54.144 7.84 96 54.112 96 110.368 0 61.76-50.24 112-112 112s-112-50.24-112-112c0-56.256 41.856-102.528 96-110.368v-129.632h-272c-8.832 0-16-7.168-16-16s7.168-16 16-16h272v-607.104c-219.68 9.44-416 210.368-416 431.104v25.376l71.36-71.36c3.136-3.136 7.232-4.672 11.328-4.672s8.192 1.568 11.328 4.672c6.24 6.24 6.24 16.384 0 22.624l-98.656 98.624c-2.912 2.944-6.944 4.736-11.36 4.736s-8.448-1.792-11.328-4.704l-97.312-97.312c-6.24-6.24-6.24-16.384 0-22.624s16.384-6.272 22.624-0.032zM560 928c44.096 0 80-35.872 80-80s-35.904-80-80-80-80 35.872-80 80 35.904 80 80 80z" />
<glyph unicode="&#xe060;" glyph-name="rss1" d="M512 961.088c-282.944 0-513.088-230.144-513.088-513.088s230.144-513.088 513.088-513.088 513.088 230.144 513.088 513.088-230.144 513.088-513.088 513.088zM512-30.912c-264.064 0-478.912 214.848-478.912 478.912s214.848 478.912 478.912 478.912 478.912-214.848 478.912-478.912-214.848-478.912-478.912-478.912zM336.064 513.568c-9.44 0-17.088-7.648-17.088-17.088s7.648-17.088 17.088-17.088c72.096 0 132.48-22.304 174.528-64.512 42.080-42.176 64.32-102.656 64.32-174.88 0-9.44 7.648-17.088 17.088-17.088s17.088 7.648 17.088 17.088c0.032 81.472-25.664 150.272-74.24 199.040-48.672 48.736-117.376 74.528-198.784 74.528zM336.16 671.136c-9.44 0-17.088-7.648-17.088-17.088s7.648-17.088 17.088-17.088c228.48 0 400.736-170.656 400.736-396.928 0-9.44 7.648-17.088 17.088-17.088s17.088 7.648 17.088 17.088c0.032 245.76-186.944 431.104-434.912 431.104zM383.968 355.776c-35.872 0-65.056-29.216-65.056-65.12 0-35.872 29.184-65.056 65.056-65.056 35.904 0 65.12 29.184 65.12 65.088-0.032 35.904-29.248 65.088-65.12 65.088zM383.968 259.776c-17.024 0-30.88 13.856-30.88 30.88 0 17.056 13.856 30.944 30.88 30.944s30.912-13.92 30.944-30.944c0-17.024-13.888-30.88-30.944-30.88z" />
<glyph unicode="&#xe900;" glyph-name="home" d="M1024 369.556l-512 397.426-512-397.428v162.038l512 397.426 512-397.428zM896 384v-384h-256v256h-256v-256h-256v384l384 288z" />
<glyph unicode="&#xe901;" glyph-name="link1" d="M810.56 645.12l-112-193.984c-17.696-30.592-56.8-41.088-87.424-23.392l-27.68 16 32 55.392c15.296-8.8 34.88-3.584 43.68 11.712l80 138.56c8.832 15.328 3.584 34.88-11.68 43.712l-110.88 64c-15.328 8.832-34.88 3.584-43.68-11.712l-80-138.56c-8.864-15.328-3.616-34.88 11.68-43.712l-32-55.392-27.68 16c-30.624 17.664-41.12 56.8-23.424 87.392l112 193.984c17.696 30.624 56.8 41.088 87.424 23.424l166.24-96c30.624-17.664 41.12-56.8 23.424-87.424zM432 309.44c-15.328 8.832-20.576 28.416-11.712 43.712l128 221.696c8.832 15.328 28.416 20.576 43.712 11.712s20.576-28.416 11.68-43.712l-128-221.696c-8.8-15.296-28.352-20.512-43.68-11.712zM408.576 396.832v0c-15.328 8.832-34.88 3.584-43.712-11.68l-80-138.56c-8.832-15.328-3.584-34.88 11.712-43.712l110.88-64c15.296-8.832 34.88-3.584 43.68 11.712l80 138.56c8.832 15.296 3.584 34.88-11.68 43.712v0l32 55.392 27.68-16c30.624-17.664 41.12-56.768 23.424-87.392l-112-193.984c-17.696-30.624-56.8-41.088-87.424-23.424l-166.272 96c-30.624 17.696-41.12 56.8-23.424 87.424l112 193.984c17.696 30.624 56.832 41.12 87.456 23.424l27.68-16-32-55.456z" />
<glyph unicode="&#xe902;" glyph-name="calendar1" d="M896 0h-768c-35.328 0-64 28.672-64 64v672c0 35.328 28.672 64 64 64h64v-32c0-53.024 42.976-96 96-96s96 42.976 96 96v32h256v-32c0-53.024 43.008-96 96-96s96 42.976 96 96v32h64c35.328 0 64-28.672 64-64v-672c0-35.328-28.672-64-64-64zM896 576h-768v-512h768v512zM418.208 325.472c6.304 10.048 9.472 20.672 9.472 31.776 0 24.736-13.312 37.12-39.936 37.12-23.136 0-45.248-9.184-66.368-27.552v52.128c23.36 15.136 49.76 22.688 79.136 22.688 27.488 0 48.96-6.912 64.416-20.704s23.168-32.48 23.168-55.968c0-31.36-18.816-63.808-56.448-97.312l-55.328-49.12v-1.12h109.12v-49.12h-176.992v46.112l77.056 73.696c15.488 14.848 26.4 27.296 32.704 37.376zM634.784 218.688c8.448 6.496 12.672 15.552 12.672 27.2 0 12-5.216 21.248-15.648 27.744s-24.768 9.76-43.040 9.76h-24.192v45.376h22.304c35.008 0 52.512 11.616 52.512 34.88 0 21.888-13.44 32.8-40.32 32.8-17.984 0-35.488-5.824-52.512-17.44v48.384c18.88 9.504 40.864 14.24 65.984 14.24 27.488 0 48.896-6.176 64.224-18.56s22.976-28.448 22.976-48.192c0-35.136-17.824-57.12-53.44-65.984v-0.928c19.008-2.368 33.984-9.28 44.992-20.704s16.512-25.472 16.512-42.080c0-25.12-9.184-44.992-27.552-59.616s-43.744-21.952-76.128-21.952c-27.744 0-50.304 4.512-67.68 13.504v51.552c17.984-13.12 39.008-19.68 63.008-19.68 15.104-0.064 26.88 3.2 35.328 9.696zM735.008 704c-34.816 0-63.008 28.192-63.008 63.008v65.984c0 34.816 28.192 63.008 63.008 63.008s63.008-28.192 63.008-63.008v-65.984c0-34.816-28.192-63.008-63.008-63.008zM287.008 704c-34.816 0-63.008 28.192-63.008 63.008v65.984c0 34.816 28.192 63.008 63.008 63.008s63.008-28.192 63.008-63.008v-65.984c0-34.816-28.224-63.008-63.008-63.008z" />
<glyph unicode="&#xe903;" glyph-name="file" d="M670.016 831.008h-446.016v-766.016h320v64h-256v638.016h320v-96h128v-352h64v385.984l-129.984 126.016zM736 255.008h-64v-64h-64v-64h64v-62.016h64v64h64v62.016h-64v64z" />
<glyph unicode="&#xe904;" glyph-name="file1" d="M352 480h32v32h-32v-32zM352 384h32v32h-32v-32zM352 576h32v32h-32v-32zM352 288h32v32h-32v-32zM352 192h32v32h-32v-32zM416 384h256v32h-256v-32zM416 576h256v32h-256v-32zM670.016 832h-446.016v-768h576v640l-129.984 128zM736 129.984h-448v638.016h320v-94.016h128v-544zM416 288h256v32h-256v-32zM416 480h256v32h-256v-32zM416 192h256v32h-256v-32z" />
<glyph unicode="&#xe905;" glyph-name="checkmark" d="M512 864c-229.76 0-416-186.24-416-416s186.24-416 416-416 416 186.24 416 416-186.24 416-416 416zM744.256 566.176l-303.552-303.52c-7.616-7.584-19.936-7.584-27.552 0l-6.112 6.112-0.032-0.032-167.008 168.192c-7.616 7.616-7.616 19.968 0 27.584l41.408 41.376c7.616 7.616 19.968 7.616 27.584 0l118.048-118.912 248.192 248.192c7.616 7.616 19.968 7.616 27.584 0l41.408-41.408c7.648-7.584 7.648-19.936 0.032-27.584z" />
<glyph unicode="&#xe906;" glyph-name="checkmark1" d="M698.24 543.040l-32.064 32.064c-5.92 5.92-15.488 5.92-21.376 0l-192.448-192.416-91.488 92.224c-5.952 5.92-15.488 5.92-21.44 0l-32.064-32.096c-5.92-5.92-5.92-15.488 0-21.376l134.176-135.136c5.92-5.888 15.488-5.888 21.376 0l235.328 235.328c5.952 5.92 5.952 15.488 0 21.408zM512 864c-229.76 0-416-186.24-416-416s186.24-416 416-416 416 186.24 416 416-186.24 416-416 416zM512 128c-176.704 0-320 143.296-320 320 0 176.736 143.296 320 320 320 176.736 0 320-143.264 320-320 0-176.704-143.264-320-320-320z" />
<glyph unicode="&#xe907;" glyph-name="quill" d="M0-64c128 384 463 1024 1024 1024-263-211-384-704-576-704s-192 0-192 0l-192-320h-64z" />
<glyph unicode="&#xe908;" glyph-name="cancel" d="M512 32c-229.76 0-416 186.24-416 416s186.24 416 416 416 416-186.24 416-416-186.24-416-416-416zM702.752 569.312c7.808 7.808 7.808 20.512 0 28.32l-42.496 42.464c-7.808 7.808-20.512 7.808-28.32 0l-120.352-120.352-120.352 120.352c-7.808 7.808-20.512 7.808-28.32 0l-42.496-42.464c-7.808-7.808-7.808-20.512 0-28.32l120.384-120.384-120.384-120.32c-7.808-7.808-7.808-20.512 0-28.32l42.496-42.496c7.808-7.808 20.512-7.808 28.32 0l120.352 120.384 120.352-120.384c7.808-7.808 20.512-7.808 28.32 0l42.496 42.496c7.808 7.808 7.808 20.512 0 28.32l-120.384 120.32 120.384 120.384z" />
<glyph unicode="&#xe909;" glyph-name="cancel1" d="M512 32c-229.76 0-416 186.24-416 416s186.24 416 416 416 416-186.24 416-416-186.24-416-416-416zM512 768c-176.704 0-320-143.296-320-320s143.296-320 320-320c176.736 0 320 143.296 320 320s-143.264 320-320 320zM657.184 334.88l-32.448-32.448c-5.952-5.952-15.616-5.952-21.6 0l-91.84 91.84-91.84-91.84c-5.984-5.952-15.616-5.952-21.6 0l-32.448 32.448c-5.952 5.952-5.952 15.616 0 21.6l91.872 91.808-91.872 91.84c-5.952 5.984-5.952 15.648 0 21.632l32.448 32.416c5.984 5.984 15.616 5.984 21.6 0l91.84-91.84 91.84 91.84c5.984 5.984 15.648 5.984 21.6 0l32.448-32.416c5.952-5.984 5.952-15.648 0-21.632l-91.872-91.84 91.872-91.808c5.952-5.984 5.952-15.68 0-21.6z" />
<glyph unicode="&#xe90a;" glyph-name="pictures" horiz-adv-x="1040" d="M851.328 13.216l-83.968 23.040-0.192 232.256 80.32-22.592 115.808 432.288-586.624 157.184-38.656-144.192h-66.176l59.616 222.464 710.176-190.272-190.304-710.176zM737.248-64h-737.248v735.264h737.248v-735.264zM673.312 607.328h-609.376v-447.52h609.376v447.52zM251.168 288.224l73.056 118.144 73.056-73.632 100.448 151.264 105.056-260.288h-465.792l59.36 118.72 54.816-54.208zM207.488 413.248c-26.496 0-47.968 21.44-47.968 47.936s21.472 47.936 47.968 47.936 47.936-21.44 47.936-47.936-21.44-47.936-47.936-47.936z" />
<glyph unicode="&#xe90b;" glyph-name="chronometer" d="M897.728 365.728c0-221.856-179.84-401.728-401.728-401.728-221.856 0-401.728 179.872-401.728 401.728 0 215.104 169.152 390.144 381.664 400.672v69.312h-30.112c-17.76 0-32.16 14.4-32.16 32.16s14.4 32.128 32.16 32.128h96.384c17.76 0 32.16-14.368 32.16-32.128s-14.4-32.16-32.16-32.16h-34.112v-68.896c216.224-6.4 389.632-183.328 389.632-401.088zM475.936 642.912v73.312c-99.488-5.632-187.712-52.48-248.512-123.456l52.896-52.896-22.72-22.752-50.080 50.112c-40.768-57.536-65.024-127.584-65.024-203.488 0-3.392 0.48-8.032 0.48-8.032h77.824v-32.16h-75.52c7.808-65.664 33.824-127.584 72.576-177.088l39.776 39.776 22.72-22.72-41.472-41.504c60.128-63.872 143.616-105.504 237.056-110.784v87.328h32.128v-87.744c95.648 3.264 181.44 44.576 243.168 109.12l-45.568 45.568 22.72 22.72 44.064-44.032c39.68 49.92 66.368 112.672 74.304 179.328h-81.6v32.16h83.872c0.096 3.328 0.512 4.64 0.512 8.032 0 78.016-25.6 149.792-68.416 208.16l-52.736-52.736-22.72 22.72 55.232 55.2c-62.304 70.496-152.096 116.192-252.8 119.584v-73.728h-32.16zM510.048 355.68h112.512c8.864 0 16.064-7.232 16.064-16.064 0-8.864-7.2-16.096-16.064-16.096h-128.576c-8.864 0-16.064 7.232-16.064 16.096v222.944c0 8.864 7.2 16.064 16.064 16.064s16.064-7.2 16.064-16.064v-206.88z" />
<glyph unicode="&#xe90c;" glyph-name="checkmark2" d="M927.936 687.008l-68.288 68.288c-12.608 12.576-32.96 12.576-45.536 0l-409.44-409.44-194.752 196.16c-12.576 12.576-32.928 12.576-45.536 0l-68.288-68.288c-12.576-12.608-12.576-32.96 0-45.536l285.568-287.488c12.576-12.576 32.96-12.576 45.536 0l500.736 500.768c12.576 12.544 12.576 32.96 0 45.536z" />
<glyph unicode="&#xe90d;" glyph-name="image" d="M959.884 832c0.040-0.034 0.082-0.076 0.116-0.116v-767.77c-0.034-0.040-0.076-0.082-0.116-0.116h-895.77c-0.040 0.034-0.082 0.076-0.114 0.116v767.772c0.034 0.040 0.076 0.082 0.114 0.114h895.77zM960 896h-896c-35.2 0-64-28.8-64-64v-768c0-35.2 28.8-64 64-64h896c35.2 0 64 28.8 64 64v768c0 35.2-28.8 64-64 64v0zM832 672c0-53.020-42.98-96-96-96s-96 42.98-96 96 42.98 96 96 96 96-42.98 96-96zM896 128h-768v128l224 384 256-320h64l224 192z" />
<glyph unicode="&#xe90e;" glyph-name="images" horiz-adv-x="1152" d="M1088 832h-64v64c0 35.2-28.8 64-64 64h-896c-35.2 0-64-28.8-64-64v-768c0-35.2 28.8-64 64-64h64v-64c0-35.2 28.8-64 64-64h896c35.2 0 64 28.8 64 64v768c0 35.2-28.8 64-64 64zM128 768v-640h-63.886c-0.040 0.034-0.082 0.076-0.114 0.116v767.77c0.034 0.040 0.076 0.082 0.114 0.114h895.77c0.040-0.034 0.082-0.076 0.116-0.116v-63.884h-768c-35.2 0-64-28.8-64-64v0zM1088 0.116c-0.034-0.040-0.076-0.082-0.116-0.116h-895.77c-0.040 0.034-0.082 0.076-0.114 0.116v767.77c0.034 0.040 0.076 0.082 0.114 0.114h895.77c0.040-0.034 0.082-0.076 0.116-0.116v-767.768zM960 608c0-53.020-42.98-96-96-96s-96 42.98-96 96 42.98 96 96 96 96-42.98 96-96zM1024 64h-768v128l224 384 256-320h64l224 192z" />
<glyph unicode="&#xe90f;" glyph-name="camera" d="M304 352c0-114.876 93.124-208 208-208s208 93.124 208 208-93.124 208-208 208-208-93.124-208-208zM960 704h-224c-16 64-32 128-96 128h-256c-64 0-80-64-96-128h-224c-35.2 0-64-28.8-64-64v-576c0-35.2 28.8-64 64-64h896c35.2 0 64 28.8 64 64v576c0 35.2-28.8 64-64 64zM512 68c-156.85 0-284 127.148-284 284 0 156.85 127.15 284 284 284 156.852 0 284-127.15 284-284 0-156.852-127.146-284-284-284zM960 512h-128v64h128v-64z" />
<glyph unicode="&#xe910;" glyph-name="cancel2" d="M626.784 447.968l195.072-195.072c12.672-12.672 12.672-33.248 0-45.92l-68.832-68.832c-12.672-12.672-33.216-12.672-45.92 0l-195.104 195.072-195.104-195.072c-12.672-12.672-33.216-12.672-45.888 0l-68.864 68.832c-12.672 12.672-12.672 33.216 0 45.92l195.104 195.072-195.104 195.104c-12.672 12.672-12.672 33.248 0 45.92l68.896 68.832c12.672 12.672 33.216 12.672 45.888 0l195.072-195.104 195.104 195.104c12.672 12.672 33.216 12.672 45.92 0l68.832-68.864c12.672-12.672 12.672-33.216 0-45.92l-195.072-195.072z" />
<glyph unicode="&#xe911;" glyph-name="magnifier" d="M932.992 1.248l-22.688-22.688c-25.12-25.088-65.76-25.088-90.816 0l-181.632 181.568c-20.992 21.056-23.328 52.608-8.992 77.184l-99.328 99.264c-53.408-39.616-119.296-63.328-190.88-63.328-177.28 0-320.992 143.712-320.992 320.992 0 177.312 143.712 321.024 320.992 321.024 177.312 0 320.992-143.712 320.992-321.024 0-82.528-31.36-157.536-82.56-214.4l97.12-97.12c24.576 14.304 56.128 12 77.12-9.056l181.632-181.568c25.088-25.12 25.088-65.792 0.032-90.848zM578.816 595.552c0 132.96-107.808 240.736-240.768 240.736s-240.768-107.744-240.768-240.736 107.776-240.736 240.736-240.736 240.8 107.776 240.8 240.736z" />
<glyph unicode="&#xe912;" glyph-name="play" d="M981.188 799.892c-143.632 20.65-302.332 32.108-469.186 32.108-166.86 0-325.556-11.458-469.194-32.108-27.53-107.726-42.808-226.75-42.808-351.892 0-125.14 15.278-244.166 42.808-351.89 143.638-20.652 302.336-32.11 469.194-32.11 166.854 0 325.552 11.458 469.186 32.11 27.532 107.724 42.812 226.75 42.812 351.89 0 125.142-15.28 244.166-42.812 351.892zM384.002 256v384l320-192-320-192z" />
<glyph unicode="&#xe913;" glyph-name="pen" d="M212 382.592l-104.416-317.952 139.552 140.064c-9.6 24.224-7.232 65.6 12.384 85.184 26.272 26.304 69.536 25.696 95.808-0.608 26.304-26.304 27.712-70.336 1.44-96.64-20-20-63.936-21.152-88.448-10.784l-138.336-138.72 310.432 109.056 113.056 203.648-137.728 135.872-203.744-109.12zM735.392 852.832c0 0-192.352-192.32-222.016-222.016-29.728-29.696-45.248-141.408-45.248-141.408l86.24-86.272c0 0 108.896 15.552 140 46.688 31.136 31.104 222.016 222.016 222.016 222.016l-180.992 180.992z" />
<glyph unicode="&#xe914;" glyph-name="attachment1" d="M737.952 529.888c0 0 37.504 28.512 8.992 57.024-28.576 28.512-56.32-8.288-56.32-8.288l-223.008-223.040c0 0-67.296-86.752-118.272-34.24s34.24 118.272 34.24 118.272l312.288 312.32c0 0 87.808 96.736 170.304 14.24 82.496-82.528-14.496-170.528-14.496-170.528l-422.816-422.848c0 0-135.296-156.288-260.576-31.008s32.512 259.040 32.512 259.040l321.088 321.088c0 0 36 30.016 8.992 57.024s-56.992-8.992-56.992-8.992l-368.32-368.352c0 0-139.040-152.544 16.256-307.776 155.296-155.296 307.808-16.288 307.808-16.288l506.304 506.336c0 0 101.248 111.776-19.488 232.576s-232.576 19.488-232.576 19.488l-371.52-371.552c0 0-111.68-90.688-10.4-191.936 101.28-101.28 190.432 11.904 190.432 11.904l245.568 245.536z" />
<glyph unicode="&#xe915;" glyph-name="hourglass" d="M784 64c8.8 0 16-7.168 16-16s0-48 0-48h-608c0 0 0 39.168 0 48s7.168 16 16 16h53.44c2.656 213.056 141.824 281.728 141.824 367.84 0 86.56-141.728 92.32-143.072 368.16h-52.192c-8.832 0-16 7.168-16 16s0 48 0 48h608c0 0 0-39.168 0-48s-7.2-16-16-16h-48.96c-1.344-275.84-143.072-281.6-143.072-368.16 0-86.112 139.2-154.784 141.856-367.84h50.176zM547.552 431.84c0 86.912 141.76 92.32 143.072 368.16h-386.016c1.312-275.84 143.072-281.248 143.072-368.16 0-83.552-139.232-153.984-141.856-367.84h24.256c5.696 18.976 24.608 41.792 57.28 58.688l42.464 21.664c26.688 13.792 42.688 23.104 48 27.904s11.328 15.552 18.048 32.256c7.072-16.672 13.12-27.424 18.24-32.256s20.928-14.112 47.488-27.904l42.24-21.664c32.48-16.896 51.328-39.712 56.928-58.688h28.608c-2.624 213.856-141.824 284.288-141.824 367.84zM514.24 478.816c-3.84-7.552-7.072-21.92-9.632-43.104-0.64-6.4-2.048-16.032-4.32-28.864-2.24 12.832-3.68 22.464-4.32 28.864-2.592 21.184-5.824 35.52-9.696 43.104-3.872 7.52-14.784 21.056-32.8 40.672l-40.032 43.776c-27.36 29.504-44.896 50.688-52.608 63.488 47.488-30.24 93.856-45.376 139.104-45.376s91.776 15.136 139.584 45.376c-8-12.8-25.6-33.984-52.768-63.488l-39.872-43.776c-17.92-19.616-28.832-33.152-32.64-40.672z" />
<glyph unicode="&#xe916;" glyph-name="envelope" d="M512.48 356.448l-130.304 106.976-283.584-334.816h828.032l-283.616 338.144-130.528-110.304zM957.632 767.392h-890.080l445.056-374.336 445.024 374.336zM662.56 483.616l297.312-354.688v606.464l-297.312-251.776zM64.128 735.392v-606.464l297.312 354.688-297.312 251.776z" />
<glyph unicode="&#xe917;" glyph-name="heart1" d="M513.344 692.96c0 0-64 136.384-208 136.384-157.344 0-240-133.344-240-266.656 0-221.344 448-496 448-496s445.312 272 445.312 496c0 136-85.312 266.656-237.312 266.656s-208-136.384-208-136.384z" />
<glyph unicode="&#xe918;" glyph-name="paperplane" d="M107.616 818.752l156-619.136 302.944 96.576-270.336 329.536 348.864-305.92 283.296 88.64-820.768 410.304zM576.128 77.248v170.368l-99.712-29.632 99.712-140.736z" />
<glyph unicode="&#xe919;" glyph-name="book" d="M480 132v628c0 0-86.016 72-208 72s-208-64-208-64v-636c0 0 86.016 62.016 208 62.016s208-62.016 208-62.016zM928 132v628c0 0-86.016 72-208 72s-208-64-208-64v-636c0 0 86.016 62.016 208 62.016s208-62.016 208-62.016zM992 704h-32v-608h-384v-32h-160v32h-384v608h-32v-640h384v-32h225.984l-1.984 32h384v640z" />
<glyph unicode="&#xe91a;" glyph-name="checked" d="M848 96h-96c-8.832 0-16 7.168-16 16s7.168 16 16 16h80v80c0 8.832 7.168 16 16 16 8.8 0 16-7.168 16-16v-96c0-8.832-7.2-16-16-16zM848 288c-8.832 0-16 7.168-16 16v96c0 8.832 7.168 16 16 16 8.8 0 16-7.168 16-16v-96c0-8.832-7.2-16-16-16zM848 480c-8.832 0-16 7.168-16 16v96c0 8.832 7.168 16 16 16 8.8 0 16-7.168 16-16v-96c0-8.832-7.2-16-16-16zM848 672c-8.832 0-16 7.168-16 16v80h-80c-8.832 0-16 7.168-16 16s7.168 16 16 16h96c8.8 0 16-7.168 16-16v-96c0-8.832-7.2-16-16-16zM469.312 286.304c-5.888-5.92-15.456-5.92-21.376 0l-32.064 32.064c-0.064 0.096-0.032 0.224-0.096 0.288l-102.016 102.784c-5.92 5.888-5.92 15.456 0 21.376l32.064 32.096c5.92 5.92 15.488 5.92 21.408 0l91.52-92.192 192.448 192.416c5.888 5.92 15.456 5.92 21.376 0l32.064-32.096c5.952-5.92 5.952-15.488 0-21.408l-235.328-235.328zM656 768h-96c-8.832 0-16 7.168-16 16s7.168 16 16 16h96c8.8 0 16-7.168 16-16s-7.2-16-16-16zM464 768h-96c-8.832 0-16 7.168-16 16s7.168 16 16 16h96c8.8 0 16-7.168 16-16s-7.2-16-16-16zM272 96h-96c-8.832 0-16 7.168-16 16v96c0 8.832 7.168 16 16 16s16-7.168 16-16v-80h80c8.832 0 16-7.168 16-16s-7.168-16-16-16zM272 768h-80v-80c0-8.832-7.168-16-16-16s-16 7.168-16 16v96c0 8.832 7.168 16 16 16h96c8.832 0 16-7.168 16-16s-7.168-16-16-16zM176 608c8.832 0 16-7.168 16-16v-96c0-8.832-7.168-16-16-16s-16 7.168-16 16v96c0 8.832 7.168 16 16 16zM176 416c8.832 0 16-7.168 16-16v-96c0-8.832-7.168-16-16-16s-16 7.168-16 16v96c0 8.832 7.168 16 16 16zM368 128h96c8.8 0 16-7.168 16-16s-7.2-16-16-16h-96c-8.832 0-16 7.168-16 16s7.168 16 16 16zM560 128h96c8.8 0 16-7.168 16-16s-7.2-16-16-16h-96c-8.832 0-16 7.168-16 16s7.168 16 16 16z" />
<glyph unicode="&#xe91b;" glyph-name="error" d="M848 96h-96c-8.832 0-16 7.168-16 16s7.168 16 16 16h80v80c0 8.832 7.168 16 16 16 8.8 0 16-7.168 16-16v-96c0-8.832-7.2-16-16-16zM848 288c-8.832 0-16 7.168-16 16v96c0 8.832 7.168 16 16 16 8.8 0 16-7.168 16-16v-96c0-8.832-7.2-16-16-16zM848 480c-8.832 0-16 7.168-16 16v96c0 8.832 7.168 16 16 16 8.8 0 16-7.168 16-16v-96c0-8.832-7.2-16-16-16zM848 672c-8.832 0-16 7.168-16 16v80h-80c-8.832 0-16 7.168-16 16s7.168 16 16 16h96c8.8 0 16-7.168 16-16v-96c0-8.832-7.2-16-16-16zM656 96h-96c-8.832 0-16 7.168-16 16s7.168 16 16 16h96c8.8 0 16-7.168 16-16s-7.2-16-16-16zM656 768h-96c-8.832 0-16 7.168-16 16s7.168 16 16 16h96c8.8 0 16-7.168 16-16s-7.2-16-16-16zM464 768h-96c-8.832 0-16 7.168-16 16s7.168 16 16 16h96c8.8 0 16-7.168 16-16s-7.2-16-16-16zM272 96h-96c-8.832 0-16 7.168-16 16v96c0 8.832 7.168 16 16 16s16-7.168 16-16v-80h80c8.832 0 16-7.168 16-16s-7.168-16-16-16zM272 768h-80v-80c0-8.832-7.168-16-16-16s-16 7.168-16 16v96c0 8.832 7.168 16 16 16h96c8.832 0 16-7.168 16-16s-7.168-16-16-16zM176 608c8.832 0 16-7.168 16-16v-96c0-8.832-7.168-16-16-16s-16 7.168-16 16v96c0 8.832 7.168 16 16 16zM176 416c8.832 0 16-7.168 16-16v-96c0-8.832-7.168-16-16-16s-16 7.168-16 16v96c0 8.832 7.168 16 16 16zM663.552 328.864l-32.448-32.448c-5.952-5.984-15.616-5.984-21.6 0l-91.84 91.84-91.84-91.84c-5.984-5.984-15.616-5.984-21.6 0l-32.416 32.448c-5.984 5.984-5.984 15.616 0 21.6l91.872 91.84-91.872 91.84c-5.984 5.952-5.984 15.616 0 21.6l32.416 32.416c5.984 5.984 15.616 5.984 21.6 0l91.84-91.84 91.84 91.84c5.984 5.984 15.648 5.984 21.6 0l32.448-32.416c5.952-5.984 5.952-15.648 0-21.6l-91.872-91.84 91.872-91.84c5.952-5.952 5.952-15.616 0-21.6zM368 128h96c8.8 0 16-7.168 16-16s-7.2-16-16-16h-96c-8.832 0-16 7.168-16 16s7.168 16 16 16z" />
<glyph unicode="&#xe91c;" glyph-name="add" d="M848 96h-96c-8.832 0-16 7.168-16 16s7.168 16 16 16h80v80c0 8.832 7.168 16 16 16 8.8 0 16-7.168 16-16v-96c0-8.832-7.2-16-16-16zM848 288c-8.832 0-16 7.168-16 16v96c0 8.832 7.168 16 16 16 8.8 0 16-7.168 16-16v-96c0-8.832-7.2-16-16-16zM848 480c-8.832 0-16 7.168-16 16v96c0 8.832 7.168 16 16 16 8.8 0 16-7.168 16-16v-96c0-8.832-7.2-16-16-16zM848 672c-8.832 0-16 7.168-16 16v80h-80c-8.832 0-16 7.168-16 16s7.168 16 16 16h96c8.8 0 16-7.168 16-16v-96c0-8.832-7.2-16-16-16zM656 96h-96c-8.832 0-16 7.168-16 16s7.168 16 16 16h96c8.8 0 16-7.168 16-16s-7.2-16-16-16zM656 768h-96c-8.832 0-16 7.168-16 16s7.168 16 16 16h96c8.8 0 16-7.168 16-16s-7.2-16-16-16zM638.016 480c17.664 0 32-14.304 32-32 0-17.664-14.336-32-32-32h-96v-96c0-17.664-14.336-32-32-32-17.696 0-32 14.336-32 32v96h-96c-17.664 0-32 14.336-32 32 0 17.696 14.304 32 32 32h96v96c0 17.696 14.304 32 32 32 17.664 0 32-14.304 32-32v-96h96zM464 768h-96c-8.832 0-16 7.168-16 16s7.168 16 16 16h96c8.8 0 16-7.168 16-16s-7.2-16-16-16zM272 96h-96c-8.832 0-16 7.168-16 16v96c0 8.832 7.168 16 16 16s16-7.168 16-16v-80h80c8.832 0 16-7.168 16-16s-7.168-16-16-16zM272 768h-80v-80c0-8.832-7.168-16-16-16s-16 7.168-16 16v96c0 8.832 7.168 16 16 16h96c8.832 0 16-7.168 16-16s-7.168-16-16-16zM176 608c8.832 0 16-7.168 16-16v-96c0-8.832-7.168-16-16-16s-16 7.168-16 16v96c0 8.832 7.168 16 16 16zM176 416c8.832 0 16-7.168 16-16v-96c0-8.832-7.168-16-16-16s-16 7.168-16 16v96c0 8.832 7.168 16 16 16zM368 128h96c8.8 0 16-7.168 16-16s-7.2-16-16-16h-96c-8.832 0-16 7.168-16 16s7.168 16 16 16z" />
<glyph unicode="&#xe91d;" glyph-name="minus" d="M272 800h-96c-8.832 0-16-7.168-16-16v-96c0-8.832 7.168-16 16-16s16 7.168 16 16v80h80c8.832 0 16 7.168 16 16s-7.168 16-16 16zM368 768h96c8.8 0 16 7.168 16 16s-7.2 16-16 16h-96c-8.832 0-16-7.168-16-16s7.168-16 16-16zM656 800h-96c-8.832 0-16-7.168-16-16s7.168-16 16-16h96c8.8 0 16 7.168 16 16s-7.2 16-16 16zM848 800h-96c-8.832 0-16-7.168-16-16s7.168-16 16-16h80v-80c0-8.832 7.168-16 16-16 8.8 0 16 7.168 16 16v96c0 8.832-7.2 16-16 16zM848 608c-8.832 0-16-7.168-16-16v-96c0-8.832 7.168-16 16-16 8.8 0 16 7.168 16 16v96c0 8.832-7.2 16-16 16zM848 416c-8.832 0-16-7.168-16-16v-96c0-8.832 7.168-16 16-16 8.8 0 16 7.168 16 16v96c0 8.832-7.2 16-16 16zM848 224c-8.832 0-16-7.168-16-16v-80h-80c-8.832 0-16-7.168-16-16s7.168-16 16-16h96c8.8 0 16 7.168 16 16v96c0 8.832-7.2 16-16 16zM656 128h-96c-8.832 0-16-7.168-16-16s7.168-16 16-16h96c8.8 0 16 7.168 16 16s-7.2 16-16 16zM464 128h-96c-8.832 0-16-7.168-16-16s7.168-16 16-16h96c8.8 0 16 7.168 16 16s-7.2 16-16 16zM272 128h-80v80c0 8.832-7.168 16-16 16s-16-7.168-16-16v-96c0-8.832 7.168-16 16-16h96c8.832 0 16 7.168 16 16s-7.168 16-16 16zM176 288c8.832 0 16 7.168 16 16v96c0 8.832-7.168 16-16 16s-16-7.168-16-16v-96c0-8.832 7.168-16 16-16zM176 480c8.832 0 16 7.168 16 16v96c0 8.832-7.168 16-16 16s-16-7.168-16-16v-96c0-8.832 7.168-16 16-16zM382.016 416h256c17.696 0 32 14.336 32 32 0 17.696-14.304 32-32 32h-256c-17.696 0-32-14.304-32-32 0-17.664 14.304-32 32-32z" />
<glyph unicode="&#xe91e;" glyph-name="anchor" d="M927.968 348.96l-36.352-247.328-73.568 71.36c-58.272-49.248-166.336-116.256-323.328-116.256-157.92 0-267.136 65.376-325.248 112.224l-67.136-65.12-38.336 245.088 252.576-37.184-69.6-67.552c48.832-36.256 125.44-79.968 201.728-79.968l-0.224 403.488c-55.712 19.392-95.808 70.624-95.808 131.36 0 77.376 64.608 140.096 144.32 140.096 79.68 0 144.32-62.72 144.32-140.096 0-61.664-41.344-113.44-98.368-132.128 0.352-78.72 1.632-404.224-0.128-404.224 72.96 0 148.288 47.488 197.344 85.888l-65.024 63.136 252.832 37.216zM571.392 701.344c0 39.872-33.312 72.224-74.4 72.224s-74.432-32.352-74.432-72.224c0-39.904 33.344-72.256 74.432-72.256s74.4 32.352 74.4 72.256z" />
<glyph unicode="&#xe91f;" glyph-name="clipboard1" d="M252.896 735.264c0-17.6 0-63.776 0-63.776h448.448c0 0 0 46.176 0 63.776 0 17.632-14.24 31.904-31.872 31.904h-95.68c0 0 1.088 36.416 1.088 92.224 0 51.808-44.928 99.136-98.752 99.136s-95.296-44.992-95.296-98.848c0-51.808-0.384-92.512-0.384-92.512h-95.648c-17.632 0-31.904-14.272-31.904-31.904zM476.128 862.816c17.6 0 31.904-14.272 31.904-31.872 0-17.632-14.304-31.904-31.904-31.904s-31.904 14.272-31.904 31.904c0 17.6 14.304 31.872 31.904 31.872zM765.152 767.168v-316.832c0 0 27.52 30.368 63.744 44.928v303.776c0 35.232-30.56 63.776-65.76 63.776h-157.472v-63.776h127.552c17.632 0 31.936-14.272 31.936-31.872zM410.336-0.192h-189.344c-17.6 0-31.872 14.24-31.872 31.872v735.488c0 17.6 14.272 31.872 31.872 31.872h129.568v63.776h-161.44c-35.232 0-63.776-28.576-63.776-63.776v-799.232c0-35.232 28.544-63.808 63.776-63.808h290.592c-12.48 21.056-34.784 45.376-69.376 63.808zM765.152 31.68c0-17.632-14.304-31.872-31.904-31.872h-87.328c-16.064-21.504-31.2-42.88-45.12-63.808h162.368c35.2 0 65.76 28.576 65.76 63.808v196.128c-21.12-17.376-42.496-36.992-63.744-58.56v-105.696zM898.656 290.368c-35.936 79.872-15.36 144.736-10.24 219.616-210.528-104.8-344.032-419.296-344.032-419.296l-82.144 154.752-169.44-99.808c71.904-24.928 174.592-104.8 261.888-209.632 61.568 109.824 251.552 334.368 343.968 354.368z" />
<glyph unicode="&#xe920;" glyph-name="pencil2" d="M384 320l128 64 448 448-64 64-448-448-64-128zM289.3 92.902c-31.632 66.728-65.666 100.762-132.396 132.394l99.096 272.792 128 77.912 384 384h-192l-384-384-192-640 640 192 384 384v192l-384-384-77.912-128z" />
<glyph unicode="&#xe921;" glyph-name="dog" d="M345.712 490.773l-16.838-70.654c74.32 1.946 106.040 19.359 218.018 108.401 111.99 89.029 98.112 241.945 98.112 241.945 34.693 8.709 56.495 33.879 56.495 33.879-86.229 88.063-133.791 0-133.791 0h-19.822c-54.51 29.995-152.619 13.548-152.619 13.548-14.868 86.131-111.665 17.414-111.665 17.414 3.31-29.69 42.958-24.515 42.963-24.515 0.013-0.022 0.035-0.048 0.048-0.070-5.976-77.29-32.165-114.866-57.284-133.093-28.629 2.867-48.479 5.737-48.479 5.737-13.214 45.49-42.616 39.684-42.616 39.684-47.565-3.869-49.549-128.722 0-186.791 49.549-58.067 167.478-45.485 167.478-45.485zM445.31 711.92c0.735 15.481 7.862 22.595 16.844 25.447 0.982-0.581 1.947-1.154 2.876-1.716 11.46-6.939 10.838-34.543 10.838-34.543-1.749-7.785-8.511-13.662-18.763-18.026-7.58 4.177-12.557 12.739-11.795 28.838zM349.678 724.015c13.874 8.226 26.264 7.26 26.264-28.063 0-12.1-9.653-19.43-22.345-23.838-2.506 0.055-4.094 0.098-5.681 0.145l1.137-0.027c-5.733 16.29-10.084 45.428 0.625 51.783zM316.646 472.701l-67.384 5.169s-23.785-33.556-25.117-54.203c-1.319-20.635-11.886-72.257 42.286-54.196 54.173 18.074 50.215 103.23 50.215 103.23zM592.812 546.258s-73.996-99.359-210.098-143.238c0 0-62.106-141.939-76.636-180.658-14.54-38.707-39.643-103.236-13.213-125.169 26.42-21.938 101.656 98.072 128.79 167.757l15.396-10.33s-59.617-101.933-50.371-140.648c9.246-38.716 46.532-74.253 96.448 56.772l21.146 55.485s9.242-68.381 73.991-100.638c0 0 26.434 134.187 130.817 98.052 0 0-107.031 0.004-101.738-105.804 0 0-89.852-16.845-89.852-39.388 0-22.55 5.278-51.308 265.6-17.389 79.28 10.319 40.952 149.674 13.207 193.551-27.753 43.884-183.668 205.184-203.487 291.645zM904.649 363.020c-29.080-30.975-113.634-69.683-113.634-69.683 26.807-10.535 34.355-65.81 34.355-65.81 13.813-3.146 22.46 0 22.46 0 81.931 37.423 56.819 135.493 56.819 135.493z" />
<glyph unicode="&#xe922;" glyph-name="monkey" d="M779.578 603.779c25.020 6.636 46.797 15.788 58.808 29.591 0 0 11.147 7.572-2.23 24.865-2.755 3.564-6.459 5.29-10.602 5.787-17.808 17.734-33.35 49.652-44.096 75.983-1.398 5.845-6.318 27.298-6.318 39.816 0 14.602-57.68 55.126-112.853 42.159-55.172-12.971-129.574-55.123-126.23-119.984 3.35-64.849 22.57-73.766 36.78-81.878 0 0-281.719-27.562-296.765-26.748 0 0-12.537-4.050-9.198-17.026 3.345-12.968 32.605-110.249 17.555-161.32 0 0-16.716-55.131-27.581-57.56 0 0-50.997 30.807-107.007 0-56.007-30.809-66.875-138.632-11.7-171.052 55.17-32.425 150.473-1.627 140.44 51.067-10.030 52.7-69.383 55.128-89.451 42.16 0 0-9.197-13.785 22.567-24.321 31.771-10.54 27.59-53.504-20.895-51.081 0 0-71.893 15.408-20.063 108.633 0 0 76.905 50.258 115.36-19.454 38.45-69.715 22.122-214.741 100.316-226.183 55.427-8.108 76.905 28.369 101.984 40.527 25.083 12.171 125.398-35.659 166.356 120.801l9.195-1.621s13.922-97.018 104.495-68.911c41.797 12.967 70.226 48.638 3.346 56.749-66.88 8.107-43.78 15.163-28.423 20.268 0 0 71.055-8.918 59.356 45.396-11.71 54.313-105.334 121.604-162.176 98.099-56.845-23.511-106.173-41.352-121.217-75.397-1.402-3.172-4.186-5.654-8.082-7.55-7.53 35.858-14.618 129.837 95.651 192.482l4.104-1.703s114.952 31.356 200.71-74.578l8.84 8.645-14.49 139.432s102.546-33.509 105.887 38.916c-0.002-0.001-103.525-24.050-132.373 4.991zM747.048 704.047c4.97 3.521 9.428 6.037 11.784 4.523 3.45-2.216 6.66-5.26 9.627-8.838-20.177-11.724-23.082-4.922-21.411 4.315zM698.231 701.997s23.434 17.942 49.832 28.662c-10.275-16.307-22.25-38.929-22.25-38.929s0 0 0.001 0 0.004 0 0.006-0.001v0l-0.003-0.003 60.437-45.841c-2.174-7.594-9.126-23.762-28.12-17.91-24.522 7.56-18.95 46.461-59.073 54.569 0.010 0-15.774 9.194-0.83 19.453zM283.31 344.759s26.217 39.045 51.194 52.221c-6.093-24.894-8.805-52.027-6.374-81.199l-44.82 28.978zM348.194 438.037c-6.977 1.138-18.417 5.86-19.188 24.558-1.115 27.024-25.64 112.412 104.773 97.282l3.248-1.347c-25.47-22.564-64.808-63.857-88.833-120.493zM690.142 559.872c-23.408 5.405-65.764-5.401-72.45-12.963 0 0-1.113 27.024 49.045 36.751 25.42 4.928 61.432 8.748 94.69 15.817l-2.186-67.703s-45.693 22.693-69.099 28.098z" />
<glyph unicode="&#xe923;" glyph-name="tiger" d="M199.64 315.445l140.2 141.026s57.485-26.014 61.693-49.292c4.205-23.275 47.67-76.677 51.873-8.213l7.014 21.906-28.042-9.98s-49.26 44.842 1.403 59.271c33.651 9.586 49.776-41.078 57.485-49.291 7.714-8.218-19.625-28.752-19.625-28.752s-13.39-28.752 20.996-17.8c34.382 10.954 74.010 37.189 31.58 102.691-5.454 8.417-10.449 15.232-15.016 20.719-9.831 19.551-28.94 52.95-53.333 73.071-11.518 9.549-24.427 18.232-38.167 25.561l-1.239 0.603c12.617 4.663 26.154 9.354 36.005 11.946 24.302 6.391 10.289 29.207-24.298 33.772-22.461 2.965-41.37-16.014-51.87-29.688-23.030 6.41-48.082 8.667-73.955 4.021-60.987-10.958-114.973-62.303-141.962-109.882s-49.777-123.915-33.305-186.557c16.48-62.64 22.088-53.057 16.48-62.64 0 0-56.089-15.063-14.019-56.141 0 0 19.628 52.031 23.834-12.321 0 0 44.864 47.919 47.673 6.845 0 0 40.66 19.168 56.078 16.431-0.002 0.002-51.877 43.817-57.482 102.694zM449.906 531.438c0 0.671 9.742-12.705 16.487-22.046 0.113-1.553 1.030-16.44-5.623-12.868-7.012 3.769-11.214 7.874-11.214 7.874s0.35 26.016 0.35 27.040zM143.085 257.136v0zM142.538 256.201v0zM304.784 404.477s67.299-96.787 86.002-123.265v-11.867s-32.72 10.868-37.396-8.257c-4.67-19.126-6.544-37.386 5.611-40.122l23.37 20.996 8.414-27.383 26.165 23.732 15.89-10.039s51.406 22.817 55.15 37.425l-148.62 175.258-34.587-36.478zM557.157 446.427c0.931-23.728-27.105-71.101-27.097-71.097-71.336-15.315-61.694-73.119-61.694-73.119l19.631 5.956 5.607-17.824 27.111 22.822 13.087-12.782 23.36 11.867v32.856c42.064 12.778 47.674 59.37 47.674 59.37l40.19 51.083c-48.61 14.605-87.869-9.132-87.869-9.132zM923.568 335.072c-5.605 31.947-29.912 91.277-32.715 118.663-2.802 27.383-71.978 57.509-67.299 0 0 0-26.167 72.246-51.408 83.133-25.237 10.886-130.862 43.746-176.665 43.746-45.797 0 89.732 78.235 160.769 48.703 71.040-29.532 71.040-63.174 34.585-92.449l29.906-32.013s67.309 63.627 26.184 124.462c-41.131 60.838-132.733 51.708-208.448 27.062-75.712-24.646-80.384-51.118-91.6-62.068l-75.712 5.474c0-0.006 48.136-37.886 79.457-128.709 0 0 134.59 7.679 169.177-10.762 34.582-18.448 85.985-75.042 81.317-105.162 0 0-80.376-24.645-34.58-74.851 0 0 0.939 28.336 22.43 27.862 0 0 2.454-28.777 12.451-36.991 0 0 16.523 29.211 27.741 30.126 0 0 5.606-34.687 14.957-34.687 0 0 3.742 27.382 17.762 27.382 14.024 0 67.3 9.129 61.691 41.079zM181.401 563.614s-34.887 0.949-39.255 51.211c-4.206 48.397 1.402 56.611 25.24 59.348 0 0 16.821-6.846 12.616-41.075-4.205-34.232 78.523 18.901 49.074 56.005-29.442 37.101-100.946 59.009-119.178-27.251-18.225-86.259 12.623-169.098 71.503-98.238z" />
<glyph unicode="&#xe924;" glyph-name="rooster" d="M182.223 521.847c8.925-9.815 24.686-25.175 53.585 0 28.9 25.174 58.063 3.269 59.176 7.625 1.116 4.356 3.351 25.082 33.495 19.622 30.144-5.455 35.726 32.715 35.726 32.715 16.75 3.265 27.91 43.064 27.91 43.064-16.746 1.625-88.198 94.091-88.198 94.091l-3.351 31.842c-20.098 13.088-88.484 6.538-88.484 6.538-0.128-0.067-0.174-0.201-0.154-0.388-7.783-3.162-31.269-19.481-44.388-28.791l-37.793 7.378 17.863-32.703-16.747-23.99s24.563 6.546 36.84 5.451c12.289-1.091 30.148-27.26 30.148-27.26-31.262 14.167-49.125 10.082-49.125 10.082-70.343-46.623 3.351-36.25 15.63-38.703 12.28-2.453 3.347-16.079 3.347-16.079-72.57-35.984-39.078-114.486-25.675-114.486 13.399 0.001 31.266 33.798 40.195 23.992zM243.898 720.035c-6.334-3.65-15.246-4.542-24.723-3.965-2.502 7.445 6.624 13.186 14.49 16.63 6.302-6.592 11.261-12.075 10.233-12.665zM294.98 771.52l20.937 40.158-34.331-16.439-17.586 31.067-21.77-31.067-30.148 16.439 10.886-40.158zM876.943 655.393c-69.503 10.632-163.287 6.539-200.13-78.501 0.012 0.008 9.218 127.574 140.687 132.479 0 0-169.147 71.968-189.248-178.267l-177.52 32.166-53.593 33.252-31.82-73.592v-14.72h25.12s28.464-143.924 175.841-55.606l8.371-9.274s-75.358-88.861-197.614 10.906c0 0-9.211 22.9-4.187 42.523 0 0-25.957-8.179-18.422 25.344 0 0-26.801 14.725-49.406-11.444 0 0-30.984 8.175-63.64-19.626 0 0-66.152 17.174-76.203-6.542-10.050-23.707-15.905-63.78 35.168-121.027 51.082-57.239 107.183-157 174.174-92.402 0 0 51.918-101.401 149.89 17.17 0 0 102.155-19.623 169.146 224.062 0 0 93.785 50.705 145.703-11.456 51.913-62.145 44.386-134.104 39.355-142.278-5.023-8.183 56.94 64.597 28.473 132.471-28.473 67.875-159.937 99.766-217.713 56.427 0 0 65.316 80.955 139.839 68.687 74.522-12.264 101.32-44.15 104.667-62.148-0.002-0.005 12.56 90.769-56.938 101.396zM450.17 213.273l-27.91 4.373-23.999-66.517c-22.887 0-65.32-7.634-56.386-20.722 8.937-13.080 58.063 10.91 35.731-7.633-22.324-18.527-34.605-55.599-18.977-54.512s41.309 50.155 50.238 55.599c8.933 5.459 29.59-16.347 29.59-16.347-3.907 14.168 0 83.958 0 83.958h16.187c-11.17 8.729-4.474 21.801-4.474 21.801zM342.99 219.819c-11.168 8.726-4.468 21.801-4.468 21.801l-27.909 4.364-24.004-66.512c-22.89 0-65.32-7.63-56.39-20.714 8.938-13.080 58.063 10.901 35.734-7.629-22.331-18.539-34.613-55.607-18.985-54.523 15.634 1.086 41.313 50.159 50.246 55.605 8.933 5.452 29.59-16.356 29.59-16.356-3.911 14.171 0 83.964 0 83.964h16.187z" />
<glyph unicode="&#xe925;" glyph-name="files-empty" d="M917.806 602.924c-22.21 30.292-53.174 65.7-87.178 99.704s-69.412 64.964-99.704 87.178c-51.574 37.82-76.592 42.194-90.924 42.194h-368c-44.114 0-80-35.888-80-80v-736c0-44.112 35.886-80 80-80h608c44.112 0 80 35.888 80 80v496c0 14.332-4.372 39.35-42.194 90.924zM785.374 657.374c30.7-30.7 54.8-58.398 72.58-81.374h-153.954v153.946c22.982-17.78 50.678-41.878 81.374-72.572v0zM896 16c0-8.672-7.328-16-16-16h-608c-8.672 0-16 7.328-16 16v736c0 8.672 7.328 16 16 16 0 0 367.956 0.002 368 0v-224c0-17.672 14.324-32 32-32h224v-496zM602.924 917.804c-51.574 37.822-76.592 42.196-90.924 42.196h-368c-44.112 0-80-35.888-80-80v-736c0-38.632 27.528-70.958 64-78.39v814.39c0 8.672 7.328 16 16 16h486.876c-9.646 7.92-19.028 15.26-27.952 21.804z" />
<glyph unicode="&#xe926;" glyph-name="dragon" d="M673.043 488.405c-26.54-2.204-74.533-28.677-99.943-27.574-18.24 0.792-35.309 32.535-42.66 54.067 18.302-0.084 40.685 6.481 47.435 3.785 11.787-4.709 32.68-26.094 37.502-31.096 4.822-5.007 56.787-3.957 41.786 38.943-5.72 16.36-5.82 29.36-2.58 38.763 8.489-7.89 15.643-16.238 15.643-16.238l7.903 20.408 42.347-12.683-5.897 17.589c6.506-0.305 11.061 1.486 11.96 6.829l12.575-5.669c0 14.128-8.406 28.804-20.888 39.687 8.214 1.512 20.106 4.221 22.512 7.579 3.712 5.18 13.18 25.219-10.544 29.173 7.454 4.973 13.698 10.74 18.36 15.654 4.862-0.721 13.63-0.833 16.291 6.968 3.75 10.986-5.482 18.834-19.617 23.020 0 0 51.762 61.735 39.975 71.152 0 0-18.751 9.417-49.287-24.59 0 0-13.394 4.709-19.288 0-5.892-4.708-19.285-17.265-25.714-36.622l-31.072 8.371s50.36 57.026 50.36 72.199c0 15.172-28.932 24.589-60.54-23.543 0 0-6.963 0-9.107 15.172-1.195 8.465-7.894 4.223-14.98-10.718-24.408 90.799-116.844 97.651-116.844 97.651l15.249-57.91-48.627-1.655s13.046-54.594 7.965-62.867c-5.085-8.268-94.863-3.306-57.596-13.23 2.996-0.799 5.298-1.531 7.559-2.348l-0.653 0.206c33.065-11.652 52.38-39.218 52.38-39.218 27.11-62.854-94.863-87.673-188.034-94.295-93.167-6.613-81.306-57.896-81.306-57.896l22.020 1.656 11.858-26.47 15.247 21.512 22.023-21.512c6.772 18.201 37.268 41.36 37.268 41.36 6.777-16.542 40.657-54.59 40.657-54.59 8.467-87.673 81.31-129.033 81.31-129.033-22.023-13.23-22.023-79.408-22.023-79.408-81.043-42.431-44.043-87.674-44.043-87.674-3.39 8.266 5.085 46.313 18.6 23.154 13.524-23.154 22.058-13.235 22.058-13.235 15.247 33.093 10.166 14.896 35.577 8.278 25.405-6.613 12.358 57.896 12.358 57.896-2.88 26.47 48.627 87.682 82.504 43.012 33.881-44.667 0-107.525-98.253-153.853-98.253-46.313-28.8-74.437-28.8-74.437-72.839-99.258 33.884-43.012 33.884-43.012 16.943-71.136 67.757 31.431 67.757 31.431 38.965-62.854 66.069 51.284 66.069 51.284 44.043-24.81 33.881 82.711 33.881 82.711 52.515 29.781 55.9 130.694 47.43 180.316-8.468 49.634 14.687 63.976 14.687 63.976l36.701-19.856v33.083l32.75-13.26-7.91 40.285 24.846 10.476c-75.098 55.698-101.080-23.154-101.080-23.154zM665.736 642.954l-0.775 0.277c11.102 4.431 18.938-0.3 23.35-4.636-3.915-2.605-7.173-4.956-9.568-6.418-0.786 0.045-1.705 0.070-2.63 0.070-2.918 0-5.778-0.253-8.557-0.739l0.296 0.043c-5.635 1.605-10.374 5.283-2.116 11.403zM617.468 655.92c11.803-0.068 15.755-5.631 16.96-10.454-8.255-6.446-20.66-14.191-20.66-2.512 0 5.419 1.39 9.659 3.7 12.966z" />
<glyph unicode="&#xe927;" glyph-name="horse" d="M455.225 517.765c0 0-1.452 22.676-23.223 26.927 0 0 0 22.677 10.165 22.677 10.158 0-34.831 26.924-53.695 26.924-18.867 0 2.901 28.349 14.511 28.349s-36.279 32.597-55.151 31.178c-18.864-1.418-1.449 24.091 10.158 26.924 11.606 2.84-50.791 31.164-60.953 29.757 0-0.001 30.478-199.82 158.188-192.736zM894.949 197.472c-26.122 7.088-47.895-2.828-49.343 17.008-1.456 19.844-58.047 106.295-72.566 113.382-14.511 7.081-23.217 79.361-49.339 127.547-26.125 48.186-119.004 35.433-268.479 39.68-149.478 4.254-187.21 246.601-187.21 246.601-1.055 5.999-10.158 7.559-10.162 7.555-12.091-3.302-11.61-35.431-13.543-38.698-1.273-2.146-16.983-12.519-27.59-19.37-48.653-16.755-73.793-40.011-86.769-59.904-24.869-24.953-31.164-83.032 0.193-89.417 34.831-7.084 62.405 34.018 62.405 34.018 24.669-5.669 58.052 11.338 58.052 11.338 36.286-7.087 34.831-128.968 34.831-128.968-11.614-18.429-42.088-134.64-42.088-134.64-31.926-22.674-117.548-100.619-124.805-110.539-7.253-9.928-29.022-39.685 0-52.437 57.012-25.062 88.526 65.188 87.078 72.273-1.452 7.087 24.669 8.505 24.669 8.505 72.559 8.501 133.515 87.869 133.515 87.869 62.397-48.186 235.096-5.672 235.096-5.672 82.721-58.101 171.248-66.603 171.248-66.603 18.867-59.528 104.492-133.223 124.809-130.387 20.312 2.837 26.114 63.772 0 70.859zM237.050 641.54c-7.988-9.178-24.634 4.367-30.905 11.647 2.929 5.478 6.585 9.298 10.386 11.948 1.203-0.1 2.549-0.246 4.074-0.453 17.413-2.36 24.67-13.695 16.444-23.142zM826.733 456.819c4.833-4.72 18.386-22.675 41.604-27.399 23.224-4.722 22.252 32.126 3.875 38.737-18.375 6.611-6.768 32.124-13.55 39.981-6.765 7.857-51.27-8.799-59.008 2.539-7.735 11.334-4.841 20.789-26.122 6.901-21.277-13.88-60.955-25.796-60.955-25.796-3.867-48.185 109.328-30.236 114.156-34.963z" />
<glyph unicode="&#xe928;" glyph-name="ox" d="M909.569 385.973c-18.067 23.183-72.78 59.473-91.364 106.86-18.583 47.386-80.52 77.224-92.908 67.345 0 0-7.227-3.833-18.582-5.85-11.351-2.019-124.86 3.975-137.813 4.887 0 0-60.856 8.578-66.586-25.56 0 0 21.681-136.093-96.002-172.386-117.686-36.294-181.172-7.563-181.172-7.563s-23.228-176.926 0-190.532c23.226-13.612 71.23 99.803 92.907 130.047l61.942-8.372s-18.581-126.211-7.744-141.334c10.843-15.121 65.488-2.331 80.52 127.023 0 0 154.85-10.589 176.532-9.071 0 0-12.9-108.419 18.582-105.855 18.577 1.513 13.932 80.143 20.127 107.365 0 0 40.263 6.049 61.937 10.587 0 0-4.644-108.873 9.288-119.465 13.943-10.584 83.624 54.439 66.586 270.684 0 0 6.194 7.564 20.132-28.73 13.935-36.291 40.257-102.48 83.617-75.434 0.001-0.002 18.062 42.162 0.001 65.354zM240.225 377.135c16.994-2.219 32.7-3.836 46.91-4.962 89.666-12.212 138.101 13.978 164.18 43.928 7.957 5.237 15.38 13.406 21.59 25.316 28.388 54.438-7.748 99.803-23.232 119.799-0.255 0.329-0.514 0.627-0.77 0.939-0.528 11.891-1.103 29.024-0.922 44.265 26.978 3.376 41.948 18.156 41.948 28.557 0 10.584-58.841 46.771-58.841 46.771 0 15.020-6.196 46.982-21.677 60.595-15.484 13.611-23.23 0-23.23 0-3.1-42.339-46.456-57.464-92.91-60.486-46.453-3.026-52.644 60.486-52.644 60.486-37.942-0.755-61.169-71.83-61.169-71.833-33.292-0.758-67.431-27.977-67.431-27.977 16.183-28.732 63.563-45.366 63.563-45.366 1.535-0.236 3.326-0.679 5.307-1.259-4.79-15.653-11.947-36.381-20.207-51.628-28.45-10.384-55.669-30.045-47.036-78.666 11.55-65.060 72.99-81.446 94.067-85.183 11.722-2.836 22.856-3.58 32.504-3.296zM222.041 435.38c-7.733 9.094-15.466 51.4 12.4 43.452 20.492-5.845 10.852-30.675 4.31-43.416-5.836-1.895-11.484-1.602-16.71-0.036zM365.281 582.053c0.533-0.644 1.12-1.216 1.753-1.728-1.067-6.484-2.412-12.985-4.092-18.557-6.666 0.787-10.82 2.138-10.82 2.138-29.422 7.562-3.099 37.807 13.158 18.147zM344.378 478.832c15.318 20.557 24.572-0.649 27.771-29.748-3.937-8.921-10.933-14.113-19.197-16.88-0.81 0.716-1.604 1.274-2.376 1.652-12.392 6.049-21.686 24.195-6.198 44.976zM267.726 563.903c-1.738-2.669-11.932-5.182-24.967-7.365-2.081 6.672-3.878 14.984-3.667 23.387 3.323 0.037 6.45 0.447 9.275 1.366 20.905 6.807 24.776-9.071 19.359-17.388z" />
<glyph unicode="&#xe929;" glyph-name="snake" d="M785.227 355.458c-16.262 6.806-31.921 12.694-47.024 17.726 15.721 59.547 25.869 127.997 1.514 197.946-45.506 130.715-224.873 264.055-337.31 273.203-112.437 9.142-175.347-82.353-175.347-82.353l79.601-66.912c-0.788-0.232-2.354-0.598-3.932-0.93l-0.718-0.126c-38.817-7.839-74.962 10.454-74.962 10.454-53.541 15.688-70.934-3.924-70.934-3.924 100.387-18.298-12.050-45.747-12.050-45.747 49.53-14.378 99.052 20.909 99.052 20.909l69.61 5.228 17.397-27.445-77.635-58.827c34.81-37.903 119.128-70.58 168.657-43.135 49.534 27.453 155.272 74.513 198.109-5.228 27.275-50.785 20.892-79.302-3.245-150.043-131.784 2.183-208.194-84.238-273.835-202.881-64.078-115.817-187.393-32.685-187.393-32.685s45.51-60.131 149.914-77.121c104.404-16.983 140.544 125.492 198.104 177.765 21.227 19.278 48.641 28.242 78.349 30.772-2.865-6.65-9.98-29.995-16.735-53.493l-4.058-16.491c-61.568-219.606 93.694-205.218 199.443-194.759 105.747 10.455 245.33 236.065 25.429 328.097zM403.737 721.466c-8.228 0.917-15.49 0.894-22.109 0.212-3.618 16.799 3.321 38.626 30.14 37.69 37.48-1.306 38.819-43.135-8.031-37.902zM765.145 154.154c-40.153-18.299-68.26 16.984-61.568 88.876 0.91 9.777 3.090 20.555 6.050 32.193 14.179-3.835 22.43-6.35 30.626-8.989l-5.891 1.639c70.941-22.217 70.941-95.418 30.783-113.719z" />
<glyph unicode="&#xe92a;" glyph-name="rat" d="M675.358 136.083s175.492 254.461-81.535 392.942c0 0-71.51 18.784-74.447 0-2.935-18.777 124.082-195.211 63.808-269.843 0 0.009-83.308-1.925-122.304 79.437 0 0-33.684 50.199-81.544 12.116-47.855-38.082-84.644-77.9-75.994-98.67 8.64-20.772 51.18-93.478 38.777-98.668-12.413-5.193-104.584 1.728-127.626-12.121-23.040-13.849-40.77-50.194 123.195-64.052 163.968-13.849 117.876 50.203 133.831 81.363 15.95 31.156 40.77 22.498 46.082-3.463 5.326-25.971-5.124-78.304 65.685-79.829 70.806-1.527 150.576-24.438 177.158 0 26.59 24.439-56.72 60.788-85.086 60.788zM911.118 383.625c-56.722 154.064-131.175 135.024-99.266 193.88-0.003-0.005 95.717 110.78 63.811 117.707 0 0-165.15-72.701-110.055-174.834 55.103-102.134 187.361-144.809 72.834-260.583-19.635-19.842-95.723-23.307-95.723-23.307s-33.678-34.626 10.639-38.081c44.312-3.465 214.485 31.155 157.76 185.218zM329.704 721.171c38.997-20.769 72.68 1.737 83.318 24.238 10.63 22.5 19.498 55.391 0 72.704-51.43 45.644-92.181 0-92.181 0-19.494-27.696-30.131-76.169 8.863-96.942zM296.244 480.566s-46.3-90.014-65.807-115.982c-19.494-25.961-37.223-95.203-8.86-103.861 28.366-8.657 77.996 45.004 122.308 95.205s88.63 50.202 122.304 6.929c33.68-43.272 124.080-150.6 108.129-31.161-15.961 119.438-63.816 174.833-79.771 200.803 0 0 16.596 74.983 3.547 105.243-0.857 1.999-1.557 3.463-2.299 4.901l0.21-0.447c8.515-2.027 18.035-3.437 28.681-4.107 109.9-6.924 111.677 91.75 99.265 119.438-12.403 27.697-38.996 50.203-99.265 55.395 0 0-58.495 8.614-79.77-37.239-10.613-22.878-18.133-55.456-9.357-83.22-36.479 15.729-95.251 30.585-165.235 9.673-86.398-25.815-102.435-61.241-104.762-80.968-7.128-0.353-12.867-1.031-16.663-2.121-30.131-8.657-49.63-25.97-31.906-45.006 17.724-19.038 42.54-20.765 62.037-19.038 0.004-0.001 42.981-64.051 117.214-74.437zM331.479 644.665c9.863-5.156 17.894-11.694 25.005-17.641-6.637-5.579-14.861-11.162-25.005-16.635 0 0-15.902 1.806-38.438 3.958 9.091 18.703 22.914 38.432 38.438 30.318z" />
<glyph unicode="&#xe92b;" d="M858.624 292.352c-4.096 1.024-7.68 3.584-9.216 7.68-3.072 158.208-89.088 230.4-178.688 251.904-101.888 24.576-194.56-34.816-208.384 31.744-1.024 5.12 0.512 10.24 4.096 14.336 63.488 67.072 220.672 39.936 239.104 152.064-24.576 24.576-102.4 13.312-122.88 9.216 12.288 11.776 54.272 53.76 54.272 86.016-133.12 25.6-211.968-73.728-288.768-134.656-2.56-2.048-6.144-3.072-9.216-2.56-140.288 20.48-247.808-97.792-227.84-237.056 0.512-3.072 2.048-6.144 4.608-8.192 27.648-21.504 71.168-21.504 111.104-30.72 4.096-1.024 7.68-4.096 8.704-8.704 25.6-89.088 56.832-173.056 8.704-262.144-2.048-3.584-5.632-5.632-9.216-6.144-52.224-4.608-108.032-36.352-91.648-87.040 1.536-4.608 7.168-16.384 17.92-15.872 186.368 2.048 472.576-13.312 631.296 6.144 4.608 0.512 10.24 4.096 11.776 8.192 8.704 17.408-0.512 39.936-5.12 57.344-2.56 9.728 7.68 18.432 16.896 14.336 107.52-51.2 153.6 133.12 42.496 154.112zM351.744 138.752c20.48 31.232 48.128 55.296 60.416 94.72 17.92-27.648 42.496-49.152 60.416-77.824-49.664 3.584-81.92-9.728-120.832-16.896zM841.216 206.336c-8.704-16.384-23.040-31.232-41.472-37.888 0 0 41.984 31.744 51.2 96.768 0-19.968 0-41.984-9.728-58.88z" />
<glyph unicode="&#xe92c;" d="M222.72 543.744c9.728-2.048 13.312-9.728 17.408-17.408 23.552-6.144 17.408 17.408 34.304 17.408 1.536 41.984-53.248 41.984-51.712 0z" />
<glyph unicode="&#xe92d;" glyph-name="paste" d="M704 832h-128v64c0 35.2-28.8 64-64 64h-128c-35.204 0-64-28.8-64-64v-64h-128v-128h512v128zM512 832h-128v63.886c0.034 0.038 0.072 0.078 0.114 0.114h127.768c0.042-0.036 0.082-0.076 0.118-0.114v-63.886zM832 640v160c0 17.6-14.4 32-32 32h-64v-64h32v-128h-192l-192-192v-256h-256v576h32v64h-64c-17.602 0-32-14.4-32-32v-640c0-17.6 14.398-32 32-32h288v-192h640v704h-192zM576 549.49v-101.49h-101.49l101.49 101.49zM960 0h-512v384h192v192h320v-576z" />
<glyph unicode="&#xe92e;" glyph-name="goat" d="M295.932 401.308c11.195 2.733 21.243 14.058 28.682 25.133 4.513 5.932 21.177 29.614 36.312 51.237 1.153 1.408 2.347 2.9 3.587 4.499 9.57 12.332 17.339 23.854 23.646 34.521l0.005 0.005c33.38 56.447 25.696 88.808 25.696 88.808 46.837 17.97 32.62 53.094 32.62 53.094h-57.712s-15.893 9.8-23.423 12.25c-7.518 2.455-7.518 26.144-7.518 47.791 0 21.643-14.223 13.477-14.223 13.477-11.713-14.7-41.823-44.105-41.823-44.105h-39.311c-4.18 56.359-17.566 61.264-17.566 61.264-30.103-10.624-35.132-71.891-35.132-71.891s-8.366-42.482-18.406-37.574c-10.031 4.9-66.073 17.966-69.417-8.173-3.014-23.534 35.34-41.769 43.006-45.167 11.185-44.271 35.074-73.974 56.53-126.357 25.096-61.259 51.024-64.527 74.447-58.812zM285.152 440.517c-45.966 23.972-0.65 33.52 7.154 34.935 9.503-3.36 14.832-7.322 17.582-11.269-0.903-0.955-1.67-2.283-2.252-4.068-5.852-17.971-22.484-19.598-22.484-19.598zM332.622 589.171c14.953 5.724 16.833-15.516 16.833-15.516-0.328-2.802-1.606-8.678-3.323-16.344-9.018-6.54-15.744-6.14-20.752-2.166-5.546 8.649-5.214 29.266 7.242 34.026zM235.694 581.82c8.96 16.823 19.619-1.822 23.1-8.921-2.155-16.058-9.708-14.76-9.708-14.76-3.669-0.827-7.044-1.311-10.17-1.514-5.546 4.517-10.133 12.213-3.222 25.195zM243.514 398.652c1.117-11.362 4.464-67.395 38.48-67.047 37.77 0.378 38.476 67.749 38.476 67.749-36.807-36.811-76.956-0.702-76.956-0.702zM911.53 427.447s-6.688 43.29-77.786 60.448c-71.095 17.15-125.464-17.974-211.616-4.085 0.003-0.003-108.728 0.815-192.367 67.795 0 0-30.954-72.695-59.39-94.749 0 0 35.962-36.758 35.962-51.459 0-14.704 5.858-89.033-28.44-148.67-34.289-59.625-49.343-129.057-44.328-139.672 0 0 47.676-14.706 126.302 150.295 0 0 200.748-4.084 248.417 27.771 0 0 97.865-73.519 101.21-85.764 3.344-12.255-13.386-47.378-16.73-69.434-3.344-22.050-0.84-63.709 40.144-27.769 40.982 35.938 47.68 78.418 49.35 87.397 1.675 8.993 0.836 55.545-27.601 115.991s19.237 107.82 56.873 111.905zM465.732 112.158l10.030-8.985c15.892 9.801 49.35 150.292 49.35 150.292h-54.368l-5.012-141.307zM701.6 274.701v-176.618s31.78 13.25 37.633 54.91c5.861 41.659 16.726 67.793 28.443 68.608-0.004 0.001-32.626 51.469-66.076 53.1z" />
<glyph unicode="&#xe92f;" glyph-name="pig" d="M557.763 269.215c-10.342-23.568-3.445-38.678 11.201-41.644 14.652-2.966 49.122 34.067 26.716 72.783-0.001 0-27.576-7.573-37.917-31.139zM915.999 496.734c-17.807 33.093-31.601 5.045-33.893 2.237 0 0-5.753-12.905 10.336-7.295 16.099 5.607 10.341-23.568-6.895-24.13 0 0-2.288 21.323-37.34 49.941-35.056 28.618-87.912 44.338-152.837 45.458-64.939 1.123-133.306 0.004-133.306 0.004s-22.407-40.4 0-63.965c22.41-23.564 49.989-72.4 49.989-121.211 0-48.808-3.446-134.654 12.067-143.076 15.522-8.41 37.928-26.926 68.954 70.708l53.431-3.365c0 0 0-67.343 34.478-63.966 34.476 3.365 10.338 43.761 18.958 67.331 8.62 23.561 12.074-43.766 13.789-53.868 1.729-10.094 29.301-15.904 39.647 7.194 10.342 23.107-6.871 61.375 31.025 119.042 11.491 17.481 8.040 64.526 4.589 74.626 0-0.001 44.819 11.229 27.008 44.335zM593.094 355.902c20.685 101.001-53.437 154.865-53.437 154.865-10.343 127.931-65.503 144.758-65.503 144.758 3.454 23.007 2.299 53.306-18.394 57.79-20.681 4.495-51.702-42.081-51.702-42.081l-140.762 2.242c-7.469 26.938-21.84 25.249-21.84 25.249-36.191 5.615-22.41-57.228-22.41-57.228l0.525-0.051c0.315-6.191 1.336-13.078 3.426-20.593-34.962-47.617-24.815-139.52-43.583-158.908-20.106-20.768-81.599-66.435-75.274-106.046 7.078-44.328 38.537-69.244 57.202-80.373 27.053-24.371 70.745-47.756 141.309-59.574 68.816-11.531 116.867-3.522 150.571 11.918 56.891 17.128 124.725 54.076 139.873 128.032zM429.64 346.661c-3.422 1.204-7.161 2.937-11.020 5.432-3.768 12.963-6.38 49.6 14.172 43.413 42.663-12.857 8.776-40.374-3.152-48.845zM423.017 588.748c7.467 0 12.446-9.959 15.767-23.4-2.256-13.503-7.467-26.518-19.213-25.971-5.075 0.238-9.053 5.226-12.178 12.939 0.295 0.343 0.35 0.705 0.109 1.089-4.594 7.299-7.469 35.343 15.517 35.343zM307.531 592.121c7.287-2.911 8.655-17.574 8.507-29.47-8.581-25.091-20.333-42.283-32.296-6.411-0.885 23.537 12.386 40.439 23.789 35.881zM256.318 332.389c-9.593 17.593-19.859 59.36 12.729 56.62 33.325-2.812 18.377-37.037 18.377-37.037l0.278-0.003c-8.059-11.66-18.677-21.189-31.384-19.58z" />
<glyph unicode="&#xe930;" glyph-name="folder-open" d="M832 0l192 512h-832l-192-512zM128 576l-128-576v832h288l128-128h416v-128z" />
<glyph unicode="&#xe931;" glyph-name="baidu" d="M511.813-64c-68.981 0-135.914 13.517-198.938 40.175-60.858 25.745-115.514 62.59-162.443 109.519-46.928 46.923-83.774 101.579-109.518 162.443-26.658 63.018-40.169 129.95-40.169 198.938 0 68.981 13.512 135.914 40.17 198.938 25.744 60.858 62.59 115.515 109.517 162.443 46.929 46.927 101.585 83.774 162.443 109.517 63.024 26.658 129.957 40.17 198.938 40.17s135.921-13.512 198.938-40.17c60.864-25.744 115.514-62.595 162.443-109.517 46.929-46.929 83.773-101.585 109.519-162.443 26.657-63.024 40.175-129.957 40.175-198.943 0-68.982-13.517-135.914-40.175-198.938-25.745-60.864-62.59-115.514-109.519-162.438-46.929-46.929-101.58-83.779-162.438-109.519-63.028-26.657-129.961-40.175-198.943-40.175v0zM511.813 923.14c-64.272 0-126.616-12.588-185.303-37.408-56.688-23.979-107.597-58.302-151.323-102.030-43.728-43.72-78.051-94.636-102.030-151.323-24.821-58.688-37.409-121.032-37.409-185.303s12.588-126.622 37.408-185.305c23.979-56.688 58.308-107.603 102.030-151.326 43.727-43.727 94.636-78.056 151.323-102.030 58.688-24.825 121.032-37.408 185.303-37.408 64.277 0 126.622 12.582 185.303 37.408 56.688 23.979 107.603 58.304 151.326 102.030 43.728 43.722 78.056 94.632 102.030 151.326 24.825 58.681 37.408 121.026 37.408 185.303 0 64.276-12.582 126.622-37.408 185.303-23.979 56.688-58.302 107.603-102.030 151.323-43.721 43.728-94.638 78.057-151.326 102.030-58.68 24.821-121.025 37.409-185.302 37.409v0zM275.253 448.057c83.344 17.905 71.952 117.432 69.461 139.215-4.068 33.511-43.515 92.107-97.085 87.512-67.404-6.034-77.266-103.407-77.266-103.407-9.099-44.998 21.83-141.176 104.89-123.32v0zM363.722 274.953c-2.444-6.992-7.901-24.895-3.16-40.503 9.284-34.899 39.687-36.48 39.687-36.48h43.562v106.614h-46.725c-21.016-6.271-31.163-22.549-33.365-29.631v0zM429.834 614.991c46.005 0 83.154 52.899 83.154 118.39 0.048 65.396-37.148 118.294-83.154 118.294-45.911 0-83.206-52.898-83.206-118.294 0-65.441 37.295-118.39 83.206-118.39v0zM627.929 607.19c61.47-7.995 100.963 57.638 108.816 107.329 8.042 49.643-31.597 107.377-75.112 117.289-43.661 10.004-98.093-59.841-103.024-105.419-5.935-55.721 7.996-111.35 69.32-119.199v0zM778.588 314.877c0 0-95.124 73.533-150.61 153.097-75.302 117.286-182.251 69.56-218.012 9.909-35.615-59.651-91.102-97.326-98.999-107.329-7.995-9.862-114.897-67.551-91.154-172.921 23.749-105.367 107.093-103.307 107.093-103.307s61.423-6.129 132.656 9.862c71.284 15.8 132.654-3.974 132.654-3.974s166.503-55.773 212.077 51.608c45.527 107.377-25.705 163.054-25.705 163.054v0zM493.648 155.076h-108.195c-46.77 9.336-65.345 41.269-67.738 46.678-2.297 5.505-15.606 31.163-8.521 74.776 20.154 65.396 77.792 70.086 77.792 70.086h57.639v70.853l49.023-0.814v-261.578zM695.287 155.843h-124.566c-48.255 12.447-50.505 46.82-50.505 46.82v137.73l50.505 0.814v-123.846c3.065-13.12 19.486-15.56 19.486-15.56h51.273v138.638h53.807v-184.596zM871.651 523.648c0 23.795-19.771 95.412-93.063 95.412-73.391 0-83.206-67.595-83.206-115.419 0-45.626 3.832-109.342 95.028-107.286 91.197 2.059 81.241 103.358 81.241 127.293v0z" />
<glyph unicode="&#xe932;" glyph-name="coding" horiz-adv-x="1362" d="M396.699 363.045c0 0 0 0 0 0 0-14.475 9.773-26.211 21.827-26.211 12.057 0 21.827 11.737 21.827 26.211 0 0 0 0 0 0s0 0 0 0c0 14.475-9.773 26.211-21.827 26.211-12.057 0-21.827-11.737-21.827-26.211s0 0 0 0zM915.141 363.045c0 0 0 0 0 0 0-14.475 9.773-26.211 21.827-26.211 12.057 0 21.827 11.737 21.827 26.211 0 0 0 0 0 0s0 0 0 0c0 14.475-9.773 26.211-21.827 26.211-12.057 0-21.827-11.737-21.827-26.211s0 0 0 0zM1251.226 531.407c-35.806 0-67.188-22.704-84.729-56.775-59.689 129.436-183.865 249.357-337.327 298.738-82.806 33.039-140.954 96.454-148.142 170.567-7.187-74.114-65.335-137.527-148.142-170.567-153.462-49.385-277.639-169.299-337.327-298.738-17.541 34.070-48.923 56.775-84.729 56.775-54.99 0-99.567-53.524-99.567-119.562 0-66.030 44.576-119.562 99.567-119.562 16.724 0 32.475 4.972 46.313 13.726 4.735-214.402 237.349-353.577 523.893-353.951 286.535 0.371 519.157 139.542 523.893 353.951 13.839-8.753 29.593-13.726 46.313-13.726 54.99 0 99.567 53.524 99.567 119.562-0.007 66.030-44.593 119.562-99.578 119.562zM156.086 374.479c-4.658-17.214-25.392-24.543-46.313-16.384s-34.105 28.731-29.444 45.945c4.658 17.214 25.392 24.543 46.313 16.384s34.105-28.737 29.444-45.945zM681.023 11.743c-229.82 0.356-415.935 108.67-415.935 263.725 0 3.247 0.119 6.465 0.274 9.678 0.053 1.056 0.108 2.114 0.18 3.171 0.142 2.191 0.339 4.37 0.558 6.549 0.292 2.918 0.638 5.826 1.062 8.719 0.042 0.287 0.076 0.575 0.119 0.858 4.626 30.474 16.471 76.976 34.358 103.783 42.977 62.164 119.634 103.578 207.083 103.578 67.324 0 128.206-24.588 172.301-64.238 44.094 39.651 104.974 64.238 172.301 64.238 87.453 0 164.108-41.42 207.083-103.578 17.889-26.801 29.734-73.307 34.358-103.783 0.042-0.287 0.076-0.575 0.119-0.858 0.429-2.892 0.771-5.804 1.062-8.719 0.215-2.179 0.411-4.352 0.558-6.549 0.071-1.056 0.125-2.114 0.18-3.171 0.157-3.211 0.274-6.43 0.274-9.678 0-155.051-186.117-263.359-415.935-263.725zM1252.272 358.098c-20.921-8.16-41.658-0.831-46.313 16.384s8.527 37.781 29.444 45.945c20.921 8.16 41.658 0.831 46.313-16.384 4.658-17.214-8.527-37.781-29.444-45.945z" />
<glyph unicode="&#xe933;" glyph-name="csdn" d="M512-32c-265.104 0-480 214.896-480 480s214.896 480 480 480c265.104 0 480-214.896 480-480s-214.896-480-480-480zM528 355.68c32.672-4.080 64.48-4.8 96.32-1.968 21.6 1.92 42.016 7.84 60.16 20.544 35.824 25.12 46.672 79.872 22.736 115.36-13.712 20.352-34.512 28.448-56.96 33.28-32.864 7.072-66.048 5.392-99.232 3.2-5.312-0.336-6.336-2.88-6.784-7.696-2.88-30.64-6.128-61.232-9.2-91.84-2.352-23.264-4.624-46.528-7.040-70.88zM578.064 387.488c1.84 19.6 3.408 36.88 5.088 54.16 1.456 14.912 3.2 29.792 4.432 44.72 0.336 4.016 1.456 6.24 5.584 5.984 14.64-0.976 29.728-0.032 43.808-3.424 34.208-8.272 45.68-50.912 21.888-77.84-14.832-16.784-34.464-22.112-55.552-23.52-7.936-0.512-15.952-0.080-25.248-0.080zM512 520.848c-2.048 0.608-3.312 1.104-4.624 1.344-35.36 6.448-70.96 7.808-106.544 2.64-19.664-2.848-38.448-8.896-53.888-21.872-21.552-18.112-20.288-43.92 4.128-58.128 12.24-7.12 26.272-11.728 39.936-16.208 13.2-4.32 27.184-6.4 40.448-10.56 11.808-3.68 13.136-13.424 3.36-20.912-3.136-2.4-6.976-4.768-10.816-5.392-10.496-1.712-21.28-4.112-31.712-3.344-22.592 1.664-45.040 5.12-68.016 7.904-1.28-9.952-2.752-21.648-4.272-33.696 3.92-1.28 7.2-2.56 10.56-3.392 31.824-7.968 64.112-9.008 96.48-4.8 18.832 2.448 37.008 7.408 53.152 17.84 26.816 17.328 34.4 53.616-4.384 70.672-13.6 5.984-28.304 9.76-42.64 14.144-10.704 3.264-21.856 5.264-32.368 8.928-9.168 3.2-10.448 11.44-2.848 17.248 4.368 3.328 10.048 6.56 15.36 6.912 9.641 0.734 20.881 1.153 32.218 1.153 6.271 0 12.512-0.128 18.72-0.382l-0.89 0.029c14.416-0.656 28.736-3.328 43.584-5.184l5.056 35.056zM753.072 518.928l-17.072-166.832h50.768c4.48 42.784 9.104 85.056 13.184 127.392 0.576 5.968 2.208 8.288 8.144 8.448 10.72 0.256 21.456 1.856 32.144 1.472 22.24-0.8 39.744-9.12 36-40.56-2.72-22.752-5.248-45.536-7.728-68.32-1.024-9.44-1.712-18.928-2.56-28.512h51.872c3.36 33.056 7.488 65.68 9.84 98.432 3.2 44.496-16.656 68.736-60.64 75.2-38.4 5.632-76.256 0.32-113.952-6.688zM299.792 392.736c-8.192-1.216-15.36-2.624-22.592-3.264-24.048-2.096-48.112-3.696-71.536 4-13.040 4.304-23.136 11.792-27.936 24.336-7.408 19.408 0.832 44.16 18.592 56.544 16.288 11.36 35.36 14.928 54.8 14.928 21.136 0.016 42.272-2.272 63.968-3.6l4.912 37.040c-14.128 1.616-27.648 3.68-41.248 4.608-38.448 2.624-75.6-2.448-110.128-19.184-28.144-13.648-48.8-33.76-55.008-63.872-7.36-35.76 10.816-65.152 48.528-80.48 17.952-7.28 36.832-11.728 56.256-11.808 23.2-0.096 46.4 1.472 69.568 2.768 2.912 0.16 7.792 2.72 8.128 4.72 1.856 10.832 2.56 21.824 3.696 33.248z" />
<glyph unicode="&#xe934;" glyph-name="douban" d="M511.855-63.711c-282.243 0-511.855 229.612-511.855 511.855s229.612 511.855 511.855 511.855 511.855-229.612 511.855-511.855-229.612-511.855-511.855-511.855zM511.855 919.514c-259.976 0-471.37-211.393-471.37-471.37s211.393-471.37 471.37-471.37 471.37 211.393 471.37 471.37-211.393 471.37-471.37 471.37zM643.145 562.951c-43.378 0.289-86.466 0-129.844 0-44.245 0-88.49 0.289-132.446 0-43.378-0.289-63.62-21.11-64.199-64.777-0.289-19.375-0.578-38.751 0-58.126 1.157-38.461 22.267-60.729 59.861-60.729 90.225-0.578 180.451-0.578 270.676 0 36.726 0.289 58.415 21.4 60.15 58.126 1.157 21.11 0.868 42.221 0.289 63.62-1.446 41.064-22.556 61.307-64.488 61.885zM661.074 453.639c-0.868-20.821-7.808-28.34-28.629-28.918-28.629-0.868-56.969-0.289-85.598-0.289h-35.859c-37.883 0-75.477-0.289-113.36 0-29.208 0.289-34.991 6.651-35.57 36.148 0 10.121-0.578 20.243 0.289 30.364 1.157 17.351 8.386 25.448 26.027 25.737 81.839 0.578 163.967 0.578 245.806 0 19.086 0 26.027-8.097 26.894-27.472 0.578-11.567 0.578-23.424 0-35.57zM708.211 274.923c-21.978 0.289-44.245 0-66.223 0.289-5.784 0-11.567 1.735-18.797 2.892 4.627 8.965 7.808 15.327 11.278 21.978 3.47 6.362 7.23 12.724 10.989 19.086 5.494 9.543 6.362 19.086-1.157 28.34-10.989 13.302-27.762 11.567-38.751-5.494s-20.821-34.702-30.364-52.631c-5.494-10.121-12.146-14.748-24.002-14.459-26.605 0.868-53.499 0.578-80.104 0-10.411-0.289-17.062 3.759-21.978 12.724-9.254 17.062-18.797 33.835-28.918 50.318-10.7 17.351-20.821 21.689-33.256 15.327-14.17-7.23-16.483-19.665-7.23-37.594 6.362-12.146 13.302-23.713 22.846-40.775h-58.126c-13.013 0-25.737 0.578-38.751-0.289-15.038-0.868-23.713-8.965-24.291-21.4-0.578-13.592 8.386-22.267 24.87-23.713 6.362-0.578 13.013-0.289 19.375-0.289h381.144c23.424 0.289 34.413 7.23 34.991 22.267 0.868 15.327-10.121 23.135-33.545 23.424zM340.369 621.366c56.969-0.289 114.228 0 171.197 0h110.468c24.002 0 48.005-0.578 71.718 0.289 16.773 0.578 25.159 9.832 24.581 23.424-0.578 12.435-8.965 20.243-24.002 21.689-3.759 0.289-7.23 0.289-10.989 0.289h-342.683c-25.159 0-36.148-7.808-35.57-24.002 0.868-15.327 10.7-21.689 35.28-21.689z" />
<glyph unicode="&#xe935;" glyph-name="price-tag" d="M976 960h-384c-26.4 0-63.274-15.274-81.942-33.942l-476.116-476.116c-18.668-18.668-18.668-49.214 0-67.882l412.118-412.118c18.668-18.668 49.214-18.668 67.882 0l476.118 476.118c18.666 18.666 33.94 55.54 33.94 81.94v384c0 26.4-21.6 48-48 48zM736 576c-53.020 0-96 42.98-96 96s42.98 96 96 96 96-42.98 96-96-42.98-96-96-96z" />
<glyph unicode="&#xe936;" glyph-name="price-tags" horiz-adv-x="1280" d="M1232 960h-384c-26.4 0-63.274-15.274-81.942-33.942l-476.116-476.116c-18.668-18.668-18.668-49.214 0-67.882l412.118-412.118c18.668-18.668 49.214-18.668 67.882 0l476.118 476.118c18.666 18.666 33.94 55.54 33.94 81.94v384c0 26.4-21.6 48-48 48zM992 576c-53.020 0-96 42.98-96 96s42.98 96 96 96 96-42.98 96-96-42.98-96-96-96zM128 416l544 544h-80c-26.4 0-63.274-15.274-81.942-33.942l-476.116-476.116c-18.668-18.668-18.668-49.214 0-67.882l412.118-412.118c18.668-18.668 49.214-18.668 67.882 0l30.058 30.058-416 416z" />
<glyph unicode="&#xe937;" horiz-adv-x="1135" d="M91.715 715.13h951.875c38.358 0 69.454-31.096 69.454-69.454v0-108.633h-1090.782v108.633c0 38.358 31.096 69.454 69.454 69.454v0z" />
<glyph unicode="&#xe938;" glyph-name="qrcode" d="M320 896h-256v-256h256v256zM384 960v0-384h-384v384h384zM128 832h128v-128h-128zM960 896h-256v-256h256v256zM1024 960v0-384h-384v384h384zM768 832h128v-128h-128zM320 256h-256v-256h256v256zM384 320v0-384h-384v384h384zM128 192h128v-128h-128zM448 960h64v-64h-64zM512 896h64v-64h-64zM448 832h64v-64h-64zM512 768h64v-64h-64zM448 704h64v-64h-64zM512 640h64v-64h-64zM448 576h64v-64h-64zM448 448h64v-64h-64zM512 384h64v-64h-64zM448 320h64v-64h-64zM512 256h64v-64h-64zM448 192h64v-64h-64zM512 128h64v-64h-64zM448 64h64v-64h-64zM512 0h64v-64h-64zM960 448h64v-64h-64zM64 448h64v-64h-64zM128 512h64v-64h-64zM0 512h64v-64h-64zM256 512h64v-64h-64zM320 448h64v-64h-64zM384 512h64v-64h-64zM576 448h64v-64h-64zM640 512h64v-64h-64zM704 448h64v-64h-64zM768 512h64v-64h-64zM832 448h64v-64h-64zM896 512h64v-64h-64zM960 320h64v-64h-64zM576 320h64v-64h-64zM640 384h64v-64h-64zM704 320h64v-64h-64zM832 320h64v-64h-64zM896 384h64v-64h-64zM960 192h64v-64h-64zM576 192h64v-64h-64zM640 256h64v-64h-64zM768 256h64v-64h-64zM832 192h64v-64h-64zM896 256h64v-64h-64zM960 64h64v-64h-64zM640 128h64v-64h-64zM704 64h64v-64h-64zM768 128h64v-64h-64zM832 64h64v-64h-64zM640 0h64v-64h-64zM768 0h64v-64h-64zM896 0h64v-64h-64z" />
<glyph unicode="&#xe939;" horiz-adv-x="1135" d="M22.261 559.304h1090.782v-601.043h-1090.782v601.043z" />
<glyph unicode="&#xe93a;" horiz-adv-x="1135" d="M66.783 470.261h1001.739v-512h-1001.739v512z" />
<glyph unicode="&#xe93b;" horiz-adv-x="1135" d="M1124.174 548.174c-4.249-18.572-16.59-33.619-33.026-41.471l-0.365-0.157-474.602-169.85c-17.703-6.715-38.171-10.603-59.548-10.603s-41.845 3.888-60.737 10.995l1.189-0.392-452.563 169.628c-16.766 8.159-29.077 23.247-33.31 41.436l-0.081 0.415z" />
<glyph unicode="&#xe93c;" horiz-adv-x="1135" d="M557.857 314.435c-0.102 0-0.224 0-0.345 0-23.062 0-45.133 4.246-65.473 11.998l1.262-0.422-452.341 169.85c-21.216 9.634-36.633 28.8-40.893 51.876l-0.067 0.437h22.261c4.351-13.803 13.853-24.899 26.196-31.25l0.295-0.138 452.341-169.628c16.546-6.269 35.675-9.899 55.652-9.899s39.106 3.63 56.765 10.265l-1.112-0.367 473.934 169.85c12.735 6.335 22.33 17.38 26.612 30.798l0.101 0.367h22.261c-4.372-23.556-19.987-42.702-40.954-51.914l-0.451-0.177-473.934-170.741c-18.475-6.882-39.82-10.877-62.094-10.908h-0.013z" />
<glyph unicode="&#xe93d;" horiz-adv-x="1135" d="M103.513 726.261h934.956c47.333 0 85.704-38.371 85.704-85.704v0-92.383h-1113.043v85.704c0 51.021 41.361 92.383 92.383 92.383v0z" />
<glyph unicode="&#xe93e;" horiz-adv-x="1135" d="M1035.13-64h-934.956c-55.325 0-100.174 44.849-100.174 100.174v601.043c0 55.325 44.849 100.174 100.174 100.174v0h934.956c55.325 0 100.174-44.849 100.174-100.174v0-601.043c0-55.325-44.849-100.174-100.174-100.174v0zM100.174 715.13c-43.030 0-77.913-34.883-77.913-77.913v0-601.043c0-43.030 34.883-77.913 77.913-77.913h934.956c43.030 0 77.913 34.883 77.913 77.913v0 601.043c0 43.030-34.883 77.913-77.913 77.913v0z" />
<glyph unicode="&#xe93f;" horiz-adv-x="1135" d="M554.518 325.788l-409.823 155.603v378.435c0 49.177 39.866 89.043 89.043 89.043v0h667.826c49.177 0 89.043-39.866 89.043-89.043v0-378.435z" />
<glyph unicode="&#xe940;" horiz-adv-x="1135" d="M554.518 314.435c-0.602-0.118-1.295-0.186-2.003-0.186s-1.401 0.068-2.072 0.197l0.068-0.011-409.823 155.826c-4.216 1.648-7.148 5.678-7.148 10.394 0 0.259 0.009 0.516 0.026 0.771l-0.002-0.034v378.435c0 0 0 0 0 0 0 55.246 44.723 100.047 99.939 100.174h667.838c0.066 0 0.144 0 0.223 0 55.246 0 100.047-44.723 100.174-99.939v-378.447c-0.002-4.788-3.027-8.868-7.269-10.438l-0.077-0.025-436.090-156.716c-0.569-0.103-1.224-0.162-1.892-0.162s-1.323 0.059-1.959 0.172l0.067-0.010zM155.826 489.182l398.915-152.487 424.737 152.487v370.866c-0.126 42.856-34.834 77.564-77.678 77.69h-667.838c-0.066 0-0.145 0-0.223 0-42.952 0-77.786-34.756-77.913-77.679v-0.012z" />
<glyph unicode="&#xe941;" horiz-adv-x="1135" d="M333.913 781.913h222.609v-22.261h-222.609zM333.913 670.609h445.217v-22.261h-445.217zM333.913 559.304h445.217v-22.261h-445.217zM972.355 169.294q2.226 6.901 7.569 3.562c1.24-0.499 2.159-1.565 2.444-2.867l0.005-0.027c0.26-0.969 0.41-2.081 0.41-3.228s-0.15-2.259-0.43-3.318l0.020 0.090q-5.343-16.918-11.576-34.282t-11.576-34.282c-0.738-1.864-1.501-4.24-2.127-6.669l-0.099-0.454c-0.087-0.801-0.137-1.73-0.137-2.671s0.050-1.87 0.147-2.785l-0.010 0.114c-0.040-0.313-0.063-0.675-0.063-1.042 0-2.597 1.14-4.927 2.947-6.518l0.010-0.008c1.962-1.266 4.36-2.019 6.933-2.019 0.224 0 0.446 0.006 0.667 0.017l-0.031-0.001c5.068 0.474 9.589 2.499 13.164 5.59l-0.030-0.025c5.465 4.152 10.164 8.921 14.112 14.278l0.135 0.191c4.495 6.037 8.386 12.935 11.355 20.304l0.221 0.621c3.086 7.304 4.885 15.795 4.897 24.705v0.005c0.002 0.169 0.003 0.369 0.003 0.569 0 10.113-2.47 19.649-6.84 28.038l0.159-0.336c-4.646 8.713-10.605 16.093-17.706 22.175l-0.102 0.086c-7.599 5.978-16.48 10.758-26.114 13.858l-0.599 0.166c-8.839 3.522-19.083 5.565-29.804 5.565-0.009 0-0.018 0-0.027 0h0.001c-0.088 0-0.192 0.001-0.296 0.001-12.068 0-23.524-2.624-33.827-7.332l0.509 0.208c-11.075-4.998-20.521-11.665-28.478-19.796l-0.016-0.016c-8.114-8.345-14.782-18.15-19.563-28.975l-0.249-0.632c-4.783-10.574-7.571-22.926-7.571-35.929 0-0.203 0.001-0.407 0.002-0.61v0.031c-0.007-0.42-0.012-0.915-0.012-1.412 0-12.123 2.543-23.652 7.126-34.082l-0.213 0.544c4.605-10.393 10.996-19.208 18.865-26.439l0.057-0.051c7.979-7.251 17.464-13.008 27.912-16.737l0.582-0.181c10.255-3.672 22.085-5.795 34.411-5.795 0.424 0 0.848 0.003 1.27 0.008l-0.064-0.001c0.060 0 0.131 0 0.201 0 7.799 0 15.427 0.729 22.82 2.123l-0.761-0.119c7.455 1.402 14.094 3.64 20.279 6.662l-0.467-0.206c6.868 3.423 12.788 7.351 18.161 11.905l-0.129-0.107c6.496 5.486 12.323 11.313 17.63 17.592l0.178 0.216q2.226 2.894 4.452 1.558c1.433-0.775 2.53-2.016 3.101-3.516l0.015-0.046c-0.441-2.529-1.378-4.778-2.71-6.738l0.038 0.060c-2.529-3.859-5.317-7.213-8.441-10.223l-0.018-0.017c-8.824-9.162-19.307-16.652-30.976-22l-0.634-0.26c-12.274-5.355-26.576-8.471-41.605-8.471-0.556 0-1.111 0.004-1.665 0.013l0.084-0.001c-0.235-0.002-0.513-0.003-0.791-0.003-13.922 0-27.271 2.448-39.642 6.937l0.809-0.257c-12.378 4.984-22.959 11.992-31.848 20.717l0.015-0.014c-9.343 8.331-16.864 18.489-22.034 29.937l-0.227 0.561c-5.074 11.532-8.027 24.975-8.027 39.109 0 0.573 0.005 1.144 0.014 1.714l-0.001-0.086c0.062 14.55 3.338 28.32 9.153 40.657l-0.249-0.588c5.656 12.6 13.143 23.366 22.263 32.503l-0.002-0.002c9.028 9.178 19.732 16.674 31.621 21.998l0.657 0.263c11.018 4.904 23.87 7.769 37.39 7.791h0.008c0.197 0.001 0.43 0.002 0.663 0.002 12.396 0 24.257-2.287 35.186-6.462l-0.676 0.227c11.236-4.23 20.91-10.11 29.267-17.454l-0.105 0.091c8.152-7.248 14.811-15.971 19.596-25.776l0.216-0.491c4.926-9.668 7.812-21.085 7.812-33.177 0-0.623-0.008-1.245-0.023-1.865l0.002 0.092c-0.030-10.198-2.072-19.91-5.75-28.773l0.184 0.502c-3.697-9.377-8.498-17.47-14.375-24.649l0.128 0.162c-5.549-6.776-12.1-12.476-19.476-16.951l-0.336-0.19c-6.327-3.984-14.007-6.378-22.24-6.455h-0.021c-0.137-0.005-0.298-0.008-0.46-0.008-4.191 0-7.939 1.899-10.43 4.884l-0.018 0.022c-3.243 4.211-5.705 9.206-7.065 14.637l-0.059 0.278c-5.116-5.281-10.979-9.796-17.427-13.384l-0.381-0.195c-5.191-2.804-11.363-4.452-17.92-4.452-0.039 0-0.078 0-0.117 0h0.006c-0.285-0.010-0.62-0.015-0.956-0.015-5.371 0-10.413 1.409-14.776 3.877l0.15-0.078c-4.219 2.424-7.717 5.638-10.394 9.469l-0.068 0.103c-2.566 3.69-4.559 8.001-5.73 12.639l-0.058 0.272c-1.108 4.203-1.756 9.032-1.781 14.009v0.015c0.148 8.99 1.85 17.538 4.847 25.45l-0.172-0.517c3.357 9.356 7.799 17.458 13.3 24.715l-0.166-0.228c5.481 7.304 12.044 13.443 19.518 18.298l0.294 0.179c7.091 4.985 15.859 8.039 25.329 8.236l0.048 0.001c0.115 0.002 0.25 0.002 0.386 0.002 7.032 0 13.496-2.434 18.596-6.504l-0.060 0.046c6.098-5.691 10.236-13.411 11.334-22.080l0.019-0.18zM912.695 73.795c8.753 0.462 16.551 4.206 22.256 10.013l0.005 0.005c8.083 8.508 14.17 18.99 17.461 30.646l0.125 0.519q3.784 11.13 5.565 18.031c0.992 3.365 1.632 7.253 1.778 11.268l0.002 0.085c0.008 0.2 0.012 0.434 0.012 0.67 0 5.671-2.495 10.759-6.446 14.227l-0.021 0.018c-4.256 3.489-9.756 5.604-15.749 5.604-0.49 0-0.976-0.014-1.458-0.042l0.067 0.003c-7.385-0.012-14.243-2.255-19.94-6.092l0.128 0.081c-6.207-4.135-11.446-9.162-15.685-14.964l-0.12-0.173c-4.237-5.757-7.777-12.387-10.297-19.499l-0.165-0.536c-2.302-6.078-3.681-13.102-3.784-20.435v-0.045c-0.112-0.982-0.176-2.12-0.176-3.273 0-7.206 2.499-13.829 6.679-19.048l-0.047 0.060c4.471-4.47 10.648-7.235 17.47-7.235 0.825 0 1.64 0.040 2.444 0.119l-0.102-0.008z" />
<glyph unicode="&#xe942;" glyph-name="gitee" d="M512-64c-282.766 0-512 229.234-512 512s229.234 512 512 512 512-229.234 512-512-229.234-512-512-512zM771.157 504.889l-290.759-0.014c-13.966 0-25.287-11.321-25.287-25.273l-0.028-63.218c0-13.966 11.306-25.287 25.273-25.287h177.024c13.966 0 25.287-11.307 25.287-25.273v-12.644c0-41.889-33.958-75.847-75.847-75.847v0h-240.214c-13.961 0-25.279 11.313-25.287 25.272v240.201c0.001 41.889 33.958 75.846 75.847 75.846l353.92 0.015c13.966 0 25.273 11.306 25.287 25.273l0.071 63.189c0 13.966-11.306 25.287-25.272 25.301l-353.992-0.014c-104.718 0.014-189.624-84.892-189.624-189.61v-353.963c0-13.967 11.32-25.287 25.287-25.287h372.935c94.265 0 170.666 76.401 170.666 170.666v145.38c0 13.952-11.32 25.273-25.287 25.273z" />
<glyph unicode="&#xe943;" glyph-name="gitlab" d="M116 511.85l396-512.3-434 317.95c-6 4.35-10.15 10.2-12.5 17.4-2.35 7.25-2.35 14.4 0 21.45l50.5 155.5zM347 511.85h330l-165-512.3-165 512.3zM248 820.7l99-308.9h-231l99 308.9c2.65 7.75 8.15 11.6 16.5 11.6s13.85-3.85 16.5-11.6zM908 511.85l50.5-155.45c2.35-7.050 2.35-14.2 0-21.45s-6.5-13.050-12.5-17.4l-434-317.95 396 512.25zM908 511.85h-231l99 308.9c2.65 7.75 8.15 11.6 16.5 11.6s13.85-3.85 16.5-11.6l99-308.9z" />
<glyph unicode="&#xe944;" glyph-name="hitokoto" d="M750.598 479.541c-40.433-65.575-115.061-102.777-205.842-117.332 2.367-26.838 0.288-61.993 20.888-102.201 40.753-79.586 76.451-166.209 88.319-229.801 69.798-30.804 215.887 42.32 257.567 134.477 44.719 98.811 0 202.004-74.084 210.672s-117.62-31.54-109.847-78.626c7.741-47.086 51.852-47.886 96.444-16.826s85.824-32.5 37.97-60.553c-47.886-28.021-124.081-44.847-168.161 5.63s-40.433 228.106 143.594 211.632c184.027-16.506 176.062-261.597 118.771-343.902-61.897-88.894-132.75-156.869-339.872-156.357h-335.329c-83.393 0-24.727 174.206 51.82 323.622 20.568 40.209 18.489 75.364 20.888 102.201-90.846 14.555-165.442 51.756-205.906 117.332h-53.836c-11.483 0-20.792 9.309-20.792 20.792v0 0.096c0 11.548 9.468 20.888 20.824 20.888h34.099c-4.175 11.528-7.633 25.168-9.764 39.243l-0.152 1.222-0.16 1.312h-65.831c-11.483 0-20.792 9.309-20.792 20.792v0 0.096c0 11.548 9.468 20.888 20.824 20.888h62.728v0.864c0 57.002 15.162 103.097 41.776 139.467v186.426c0 11.548 8.637 17.114 19.257 12.507l208.913-90.846c20.792 2.079 42.288 3.103 64.296 3.103s43.504-1.056 64.328-3.135l208.913 90.846c10.62 4.606 19.225-0.992 19.225-12.539v-186.394c26.614-36.37 41.776-82.465 41.776-139.467v-0.864h62.728c0.010 0 0.021 0 0.032 0 11.483 0 20.792-9.309 20.792-20.792 0-0.034 0-0.067 0-0.101v0.005c-0.036-11.499-9.33-20.816-20.817-20.888h-65.806c-2.429-16.416-6.123-31.061-11.101-45.098l0.513 1.659 0.512 1.663h34.099c0.010 0 0.021 0 0.032 0 11.483 0 20.792-9.309 20.792-20.792 0-0.034 0-0.067 0-0.101v0.005c-0.036-11.499-9.33-20.816-20.817-20.888h-53.811z" />
<glyph unicode="&#xe945;" d="M666.988 960h-309.999c-102.81 0-154.169 0-209.51-17.522-60.561-22.476-107.479-69.408-129.445-128.477l-0.49-1.503c-17.545-55.364-17.545-106.724-17.545-209.51v-309.953c0-102.878 0-154.214 17.522-209.556 22.479-60.566 69.409-107.489 128.477-129.467l1.503-0.49c55.319-17.522 106.701-17.522 209.488-17.522h309.976c102.855 0 154.169 0 209.51 17.522 60.573 22.474 107.508 69.394 129.512 128.454l0.491 1.503c17.522 55.319 17.522 106.701 17.522 209.533v309.976c0 102.787 0 154.169-17.522 209.51-22.492 60.576-69.426 107.511-128.499 129.512l-1.504 0.491c-55.273 17.499-106.655 17.499-209.488 17.499z" />
<glyph unicode="&#xe946;" d="M213.402 507.346h76.618v-400.68h-76.618zM256.592 629.043c19.206-35.612 31.676-71.225 37.41-106.837h83.467c-11.514 45.511-25.896 81.124-43.145 106.837h-77.733z" />
<glyph unicode="&#xe947;" d="M421.365 700.268h92.114v50.472h-166.935c1.911 3.959 4.801 10.854 8.624 20.776 1.934 7.896 3.868 13.813 5.757 17.818h-86.335c-13.426-53.43-44.1-93.047-92.092-118.738v-50.449c63.306 15.815 108.407 42.53 135.259 80.122h28.786c9.58-25.714 15.36-50.472 17.294-74.206h80.577c-5.825 27.694-13.471 52.429-23.051 74.206zM383.932 539.978h346.886v-326.497c1.934-29.673-11.492-43.509-40.3-41.529h-47.582v-59.369h69.086c67.152-1.957 99.76 28.718 97.826 92.023v394.763h-425.916v-59.392z" />
<glyph unicode="&#xe948;" d="M654.473 486.571h-282.055v-299.804h195.721c61.394-1.957 90.18 27.739 86.335 89.042v210.762zM450.15 433.163h126.612v-68.267h-126.612v68.267zM539.352 240.219h-89.202v74.206h126.612v-35.635c1.911-27.716-10.536-40.55-37.41-38.571zM657.362 753.698c0 1.957 0.956 4.915 2.89 8.92l8.624 26.715h-86.335c-13.449-55.41-43.167-96.961-89.247-124.655v-47.491c59.483 15.838 104.607 43.509 135.282 83.103h40.3c9.603-25.714 15.337-50.472 17.294-74.206h77.665c-1.911 19.752-9.58 44.51-23.029 74.206h100.739v53.407h-184.183z" />
<glyph unicode="&#xe949;" glyph-name="compass" d="M544.010-64.004c-2.296 0-4.622 0.25-6.94 0.764-14.648 3.25-25.070 16.238-25.070 31.24v480h-480c-15.002 0-27.992 10.422-31.24 25.070-3.25 14.646 4.114 29.584 17.708 35.928l960 448c12.196 5.688 26.644 3.144 36.16-6.372 9.516-9.514 12.060-23.966 6.372-36.16l-448-960c-5.342-11.44-16.772-18.47-28.99-18.47zM176.242 512h367.758c17.674 0 32-14.328 32-32v-367.758l349.79 749.546-749.548-349.788z" />
<glyph unicode="&#xe94a;" glyph-name="juejing" horiz-adv-x="1272" d="M709.641 794.723l-95.315 75.152-104.741-82.688 104.741-83.502 105.091 83.502-9.776 7.536zM1070.853 503.251l-456.789-360.194-456.498 359.99-67.442-54.175 523.94-413.117 524.231 413.35-67.442 54.145zM614.065 474.040l-248.586 195.954-67.413-54.116 315.97-249.168 316.29 249.401-67.413 54.145-248.848-196.216z" />
<glyph unicode="&#xe94b;" d="M328.107 960h367.787c114.773 0 157.44-11.947 197.12-34.133 41.478-22.24 74.613-55.375 96.244-95.613l0.609-1.24c22.187-39.68 34.133-82.347 34.133-197.12v-367.787c0-113.92-11.947-155.307-34.133-197.12-22.24-41.478-55.375-74.613-95.613-96.244l-1.24-0.609c-42.667-22.187-83.2-34.133-197.12-34.133h-367.787c-114.773 0-157.44 11.947-197.12 34.133-41.478 22.24-74.613 55.375-96.244 95.613l-0.609 1.24c-22.187 39.68-34.133 82.347-34.133 197.12v367.787c0 114.773 11.947 157.44 34.133 197.12 22.24 41.478 55.375 74.613 95.613 96.244l1.24 0.609c39.68 22.187 82.347 34.133 197.12 34.133z" />
<glyph unicode="&#xe94c;" glyph-name="map2" d="M672 768l-320 128-352-128v-768l352 128 320-128 352 128v768l-352-128zM384 814.27l256-102.4v-630.138l-256 102.398v630.14zM64 723.172l256 93.090v-631.8l-256-93.088v631.798zM960 172.828l-256-93.092v631.8l256 93.090v-631.798z" />
<glyph unicode="&#xe94d;" d="M663.467 828.16c25.678-6.426 48.117-17.636 67.377-32.721l-0.39 0.294c7.437-5.271 13.274-12.341 16.94-20.589l0.126-0.318c2.022-4.791 3.198-10.361 3.198-16.206 0-8.739-2.627-16.865-7.136-23.63l0.098 0.156c-7.704-11.896-20.911-19.656-35.93-19.656-8.343 0-16.126 2.394-22.7 6.533l0.177-0.104c-4.693 2.987-8.107 7.253-12.8 9.813-11.898 8.475-26.637 13.69-42.572 14.078l-0.094 0.002c-10.924-1.214-20.453-6.391-27.27-14.038l-0.037-0.042c-5.388-5.466-8.716-12.976-8.716-21.263 0-2.139 0.222-4.227 0.644-6.241l-0.035 0.197 15.787-59.307c39.861-1.565 76.722-13.096 108.561-32.151l-1.041 0.578c32.25-19.959 59.523-44.515 81.833-73.129l0.513-0.684c18.625-24.236 33.245-52.678 42.216-83.524l0.451-1.809c7.183-23.761 11.318-51.067 11.318-79.339 0-6.763-0.237-13.471-0.702-20.116l0.050 0.895c-2.198-29.995-8.274-57.863-17.755-84.102l0.689 2.182c-25.48-65.914-69.982-119.776-126.726-156.247l-1.274-0.767c-40.346-25.568-88.217-43.159-139.599-49.334l-1.628-0.159c-15.579-2.434-33.547-3.824-51.84-3.824s-36.261 1.39-53.804 4.071l1.964-0.247c-73.965 13.175-138.057 48.556-186.791 98.895l-0.089 0.092c-65.407 66.23-105.806 157.29-105.806 257.784 0 28.558 3.262 56.354 9.435 83.035l-0.482-2.473c26.437 117.014 107.069 210.866 213.509 255.121l2.384 0.879c6.254 2.558 13.511 4.042 21.116 4.042 9.756 0 18.941-2.444 26.977-6.752l-0.306 0.15c10.855-7.836 17.838-20.451 17.838-34.698 0-1.907-0.125-3.784-0.367-5.625l0.023 0.216c-1.925-16.1-12.572-29.31-27.015-34.888l-0.292-0.099c-92.995-36.133-160.508-118.849-174.343-218.721l-0.163-1.439c-1.59-11.206-2.497-24.15-2.497-37.306 0-35.343 6.551-69.155 18.504-100.29l-0.647 1.916c23.948-63.975 69.023-115.406 126.564-146.907l1.436-0.72c33.429-17.745 73.087-28.163 115.178-28.163 0.458 0 0.915 0.001 1.372 0.004h-0.070c35.113 0.209 68.668 6.604 99.719 18.149l-2.012-0.655c54.767 19.867 98.838 58.131 125.688 107.167l0.605 1.207c6.276 10.981 11.786 23.707 15.861 37.058l0.352 1.342c5.337 17.763 8.409 38.176 8.409 59.307s-3.072 41.543-8.794 60.816l0.384-1.509c-10.432 33.313-29.233 61.486-53.969 83.015l-0.218 0.185c-10.583 9.35-22.302 17.945-34.766 25.429l-1.074 0.598c-10.326 5.822-22.284 10.52-34.914 13.471l-0.926 0.182c8.533-34.133 17.92-68.267 26.88-102.827l4.267-24.747c0.052-1.451 0.081-3.156 0.081-4.868 0-70.419-50.028-129.153-116.481-142.601l-0.933-0.158c-8.222-1.721-17.67-2.706-27.347-2.706-27.862 0-53.817 8.167-75.601 22.238l0.548-0.332c-27.973 18.746-49.154 45.719-60.257 77.427l-0.329 1.080c-5.95 16.574-9.654 35.707-10.234 55.624l-0.006 0.27c-0.176 3.082-0.276 6.687-0.276 10.316 0 40.068 12.219 77.283 33.135 108.12l-0.432-0.676c28.575 39.543 69.533 68.588 117.117 81.572l1.496 0.348-10.24 39.68c-3.271 10.309-5.155 22.165-5.155 34.461 0 18.495 4.264 35.995 11.862 51.569l-0.307-0.697c7.812 15.283 18.124 28.184 30.538 38.677l0.182 0.15c12.627 12.212 27.861 21.815 44.778 27.886l0.875 0.274c10.388 3.036 22.321 4.783 34.662 4.783 11.18 0 22.025-1.433 32.361-4.126l-0.89 0.197z" />
<glyph unicode="&#xe94e;" glyph-name="clock" d="M658.744 210.744l-210.744 210.746v282.51h128v-229.49l173.256-173.254zM512 960c-282.77 0-512-229.23-512-512s229.23-512 512-512 512 229.23 512 512-229.23 512-512 512zM512 64c-212.078 0-384 171.922-384 384s171.922 384 384 384c212.078 0 384-171.922 384-384s-171.922-384-384-384z" />
<glyph unicode="&#xe94f;" d="M487.253 516.693c-12.231-12.881-21.080-29.088-25.051-47.125l-0.122-0.662c-1.536-7.44-2.415-15.991-2.415-24.747s0.879-17.307 2.554-25.568l-0.139 0.822c3.411-18.924 13.631-35.006 27.98-45.948l0.18-0.132c8.562-5.927 19.167-9.467 30.6-9.467 4.278 0 8.441 0.496 12.433 1.433l-0.367-0.073c26.661 5.338 46.705 27.857 48.207 55.314l0.007 0.153c-0.986 7.573-2.331 14.223-4.089 20.703l0.249-1.076-29.44 111.36c-23.817-6.563-44.259-18.716-60.59-34.99l0.004 0.004z" />
<glyph unicode="&#xe950;" d="M194.56 611.84c-104.96 0-189.44-87.040-189.44-192 0-107.52 87.040-194.56 192-194.56s192 87.040 192 194.56c-2.56 107.52-89.6 194.56-194.56 192zM197.12 294.4c-69.12 0-128 56.32-128 128 0 69.12 56.32 125.44 125.44 128 71.68 2.56 128-53.76 130.56-125.44-2.56-74.24-58.88-130.56-128-130.56z" />
<glyph unicode="&#xe951;" d="M752.64 273.92v291.84c0 23.040 5.12 40.96-30.72 40.96-33.28 0-33.28-12.8-33.28-38.4 2.56-48.64 7.68-174.080-7.68-176.64-12.8-2.56-20.48 15.36-28.16 25.6-43.52 58.88-89.6 115.2-133.12 174.080-12.8 15.36-25.6 17.92-40.96 12.8-17.92-5.12-10.24-20.48-10.24-30.72v-153.6c0-53.76 2.56-107.52 0-161.28 0-28.16 15.36-25.6 33.28-25.6 15.36 0 33.28-5.12 33.28 23.040-2.56 53.76 0 110.080 0 163.84 0 10.24-5.12 23.040 5.12 25.6 12.8 7.68 17.92-10.24 23.040-17.92 43.52-58.88 89.6-115.2 133.12-174.080 12.8-17.92 28.16-30.72 48.64-23.040 15.36 12.8 7.68 30.72 7.68 43.52zM983.040 299.52c-15.36-2.56-30.72 0-48.64 0-10.24 0-17.92 2.56-20.48 15.36-10.24 61.44-2.56 71.68 58.88 74.24 10.24 0 25.6-7.68 30.72 10.24 10.24 35.84-2.56 53.76-38.4 53.76h-28.16c-15.36 0-20.48 2.56-23.040 20.48-5.12 69.12-5.12 69.12 64 69.12h15.36c28.16-5.12 25.6 15.36 25.6 30.72s5.12 35.84-23.040 33.28c-40.96-2.56-79.36-2.56-120.32 0-17.92 0-23.040-5.12-23.040-23.040v-325.12c0-17.92 5.12-23.040 23.040-23.040 40.96 0 79.36 2.56 120.32 0 20.48 0 23.040 10.24 23.040 25.6 2.56 28.16-2.56 43.52-35.84 38.4z" />
<glyph unicode="&#xe952;" glyph-name="qiniu" horiz-adv-x="4442" d="M1939.158 804.512c37.761 86.629-11.106 53.31-11.106 53.31s-173.258-284.321-599.74-284.321c-68.859 0-128.833 6.664-184.364 19.991-24.434 79.965-55.531 142.161-106.62 151.046 0 0 2.221-51.089 6.664-122.169-219.905 82.187-310.976 239.896-310.976 239.896s-37.761 46.646-22.213-24.434c11.106-53.31 104.399-266.551 342.074-366.508 11.106-135.497 24.434-279.879 44.425-326.525 37.761-99.957 86.629-108.842 233.232-108.842s224.347 11.106 246.56 97.735c22.213 84.408 44.425 277.657 42.204 286.542s0 33.319-37.761-2.221c-53.31-44.425-108.842-228.79-124.39-246.56s-133.275-46.646-197.692-19.991c-35.54 26.655-53.31 153.267-77.744 282.1 44.425-8.885 95.514-13.328 148.824-13.328 444.252-2.221 568.642 297.649 608.625 384.278zM2110.195 464.659c-15.549 8.885-33.319 15.549-53.31 19.991-39.983 8.885-79.965 8.885-119.948 0-19.991-4.443-37.761-11.106-53.31-19.991s-28.876-19.991-37.761-33.319c-8.885-13.328-15.549-28.876-15.549-46.646v-228.79c0-17.77 4.443-33.319 15.549-46.646 8.885-13.328 22.213-24.434 37.761-33.319s33.319-15.549 53.31-19.991c24.434-4.443 48.868-6.664 73.302-6.664 4.443-15.549 11.106-26.655 17.77-35.54 8.885-8.885 19.991-15.549 31.098-15.549h84.408c6.664 0 11.106 6.664 11.106 11.106v48.868c0 6.664-4.443 11.106-11.106 11.106s-15.549 0-22.213 2.221c-2.221 0-4.443 2.221-6.664 4.443 19.991 13.328 33.319 31.098 33.319 31.098 8.885 13.328 15.549 26.655 15.549 44.425v233.232c0 17.77-4.443 33.319-15.549 46.646-8.885 13.328-22.213 24.434-37.761 33.319zM2076.876 149.241c0-2.221 0-37.761-46.646-42.204-6.664-2.221-13.328-2.221-22.213-2.221-19.991 0-35.54 4.443-48.868 11.106s-19.991 17.77-19.991 33.319v226.568c0 15.549 6.664 26.655 19.991 33.319s31.098 11.106 48.868 11.106c19.991 0 35.54-4.443 48.868-11.106s19.991-17.77 19.991-33.319v-226.568zM2267.905 491.315h104.399v-439.809h-104.399v439.809zM2712.156 226.985l-153.267 264.33h-97.735v-439.809h99.957v264.33h2.221l153.267-264.33h95.514v439.809h-99.957v-264.33zM2900.963 491.315h104.399v-439.809h-104.399v439.809zM3323.002 491.315v-330.967c0-15.549-6.664-26.655-17.77-33.319s-26.655-11.106-44.425-11.106-33.319 4.443-44.425 11.106-17.77 17.77-17.77 33.319v330.967h-102.178v-337.631c0-15.549 4.443-26.655 13.328-39.983s19.991-22.213 35.54-33.319c15.549-8.885 33.319-15.549 53.31-22.213s42.204-8.885 64.416-8.885 44.425 2.221 64.416 8.885c19.991 4.443 37.761 13.328 53.31 22.213s26.655 19.991 35.54 33.319c8.885 11.106 13.328 24.434 13.328 39.983v337.631h-106.62z" />
<glyph unicode="&#xe953;" glyph-name="calendar" d="M320 576h128v-128h-128zM512 576h128v-128h-128zM704 576h128v-128h-128zM128 192h128v-128h-128zM320 192h128v-128h-128zM512 192h128v-128h-128zM320 384h128v-128h-128zM512 384h128v-128h-128zM704 384h128v-128h-128zM128 384h128v-128h-128zM832 960v-64h-128v64h-448v-64h-128v64h-128v-1024h960v1024h-128zM896 0h-832v704h832v-704z" />
<glyph unicode="&#xe954;" glyph-name="qq" d="M290.816 380.416s-2.731-21.163-5.461-45.056c-1.365-12.288-2.731-25.259-3.413-36.181-0.683-5.461-0.683-10.923-1.365-15.701 0-4.779-0.683-8.875-0.683-12.288 0-6.827 0.683-13.653 2.048-19.797 1.365-4.779 2.731-9.557 5.461-14.336 4.096-6.827 9.557-12.971 16.384-17.749 7.509-4.779 16.384-8.875 26.624-12.288 15.019-4.096 32.085-7.509 48.469-7.509 6.144 0 12.288 0.683 18.432 2.048 4.779 0.683 8.875 2.048 12.971 4.096 6.144 2.731 11.605 6.827 15.701 12.971 2.048 2.731 3.413 6.144 4.779 9.557s2.048 7.509 2.048 11.605c1.365 19.115 2.048 43.691 2.731 63.488s0.683 35.499 0.683 35.499l-20.48 0.683v-2.731c0-12.288-1.365-62.805-3.413-95.573 0-4.096-1.365-7.509-2.731-9.557s-2.731-3.413-4.096-4.779c-2.731-2.048-6.144-3.413-10.923-4.779s-10.24-1.365-15.701-1.365c-13.653 0-29.355 2.731-43.008 6.827-8.192 2.731-14.336 5.461-19.115 8.192-3.413 2.048-6.144 4.779-8.192 6.827-3.413 3.413-5.461 7.509-6.827 12.288s-2.048 10.24-2.048 17.067c0 2.731 0 6.827 0.683 10.923 0.683 15.701 3.413 40.277 5.461 60.075 1.365 10.24 2.048 19.115 2.731 25.259 0.683 3.413 0.683 6.144 0.683 7.509 0 2.048 0.683 2.731 0.683 2.731l-19.115 2.048zM456.704 716.288c-12.288 0-21.845-14.336-21.845-32.768s9.557-32.768 21.845-32.768 21.845 14.336 21.845 32.768-9.557 32.768-21.845 32.768zM462.848 675.328c-5.461 0-9.557 6.144-9.557 14.336 0 7.509 4.096 14.336 9.557 14.336s9.557-6.144 9.557-14.336c0-8.192-4.096-14.336-9.557-14.336zM573.44 689.664c1.365 2.048 2.048 3.413 3.413 4.096 0.683 0.683 1.365 0.683 2.731 0.683 0.683 0 1.365 0 2.731-0.683 1.365-1.365 3.413-3.413 4.779-7.509s2.048-8.875 2.048-14.336h17.067c0 10.923-2.048 21.163-6.827 29.355-2.048 4.096-4.779 7.509-8.192 10.24s-7.509 4.096-11.605 4.096c-4.096 0-8.192-1.365-11.605-4.096-4.779-4.096-8.875-9.557-10.923-16.384-2.731-6.827-4.096-14.336-4.096-22.528h17.067c-0.683 6.827 0.683 12.971 3.413 17.067zM856.747 431.616c-6.827 10.24-14.336 19.115-21.163 27.307 0.683 0.683 1.365 2.048 2.048 2.731 4.779 7.509 7.509 14.336 9.557 21.845 2.731 10.923 3.413 21.845 3.413 32.085 0 17.749-3.413 34.133-10.24 48.469-6.827 15.019-16.384 27.989-28.672 40.277l-11.605 11.605c-1.365 12.288-3.413 28.672-7.509 49.835-10.24 53.931-57.344 135.851-114.688 175.445-56.661 38.229-128.341 53.248-165.888 53.931-31.403 0.683-102.4-11.605-164.523-53.931-58.027-39.595-109.227-121.515-115.371-175.445-3.413-30.72-4.779-50.517-4.096-64.853-0.683 0-6.827-1.365-13.653-6.144-3.413-2.731-6.827-5.461-10.24-10.24s-5.461-10.24-6.827-16.384c-2.048-10.24-3.413-15.701-3.413-18.432-1.365-1.365-3.413-4.096-4.779-7.509-2.048-2.731-3.413-6.827-4.779-10.923s-2.048-8.875-2.048-14.336c0-2.731 0-6.144 0.683-9.557 1.365-6.144 3.413-14.336 7.509-24.576 2.048-4.779 4.096-9.557 6.827-15.019-9.557-10.24-19.797-22.528-29.355-36.181-31.403-45.739-65.536-129.707-60.757-177.493 6.144-60.757 14.336-62.805 35.499-49.835 23.211 14.336 49.835 56.661 49.835 56.661s28.672-77.824 75.093-118.784c54.613-47.787 104.448-77.141 165.205-90.112 39.595-8.192 65.536-9.557 79.189-8.875 13.653 0 39.595 0.683 79.189 8.875 60.757 12.288 110.592 41.643 165.205 90.112 46.421 41.643 75.093 118.784 75.093 118.784s26.624-42.325 49.835-56.661c21.163-12.288 29.355-10.24 35.499 49.835 5.461 47.787-28.672 131.755-60.075 177.493zM592.555 766.123c30.72 0 55.296-36.864 55.296-82.603s-24.576-82.603-55.296-82.603-55.296 36.864-55.296 82.603 24.576 82.603 55.296 82.603zM438.272 766.123c30.72 0 55.296-36.864 55.296-82.603s-24.576-82.603-55.296-82.603-55.296 36.864-55.296 82.603 24.576 82.603 55.296 82.603zM397.312 571.563c38.229 16.384 107.179 19.797 124.928 20.48h4.096c17.749-0.683 87.381-4.779 124.928-20.48 43.691-19.115 68.949-29.355 68.949-39.595s-8.192-21.163-31.403-31.403c-23.211-10.24-33.451-8.192-33.451-8.192s12.288 14.336 16.384 29.355c0 0-62.805-51.883-137.899-55.979h-20.48c-75.776 4.096-137.899 55.979-137.899 55.979 4.096-14.336 16.384-29.355 16.384-29.355s-10.24-2.048-33.451 8.192c-23.211 10.24-31.403 21.163-31.403 31.403 1.365 10.24 26.624 20.48 70.315 39.595zM208.213 534.016c0.683 1.365 1.365 2.048 2.048 2.731l2.731 2.731 0.683 3.413 4.096 21.163c0.683 4.096 2.048 6.827 3.413 8.875 0.683 1.365 2.048 2.048 2.731 3.413 1.365-4.096 3.413-8.192 5.461-13.653 5.461-11.605 13.653-25.941 26.624-40.96 18.432-22.528 46.421-46.421 87.381-64.853s94.891-30.72 165.205-30.72h10.24c64.853 1.365 116.053 11.605 155.648 27.989 30.037 11.605 53.931 26.624 72.363 42.325 27.989 23.211 45.056 47.787 54.613 66.901 2.731 5.461 4.779 10.24 6.827 14.336 5.461-6.827 9.557-13.653 12.971-21.163 5.461-12.288 8.875-25.259 8.875-40.277 0-8.875-1.365-17.749-3.413-27.307-0.683-4.096-3.413-9.557-6.827-15.701-6.144-10.923-17.067-23.211-30.72-35.499-20.48-19.115-47.787-38.229-79.189-54.613s-65.536-28.672-101.035-34.816c-21.845-4.096-45.056-5.461-68.267-5.461-44.373 0-90.112 6.144-131.755 16.384s-79.872 23.893-109.227 38.229c-36.864 17.749-60.075 41.643-74.411 63.488-7.509 10.923-12.288 21.163-15.701 30.037s-5.461 16.384-6.144 20.48c-0.683 2.048-0.683 3.413-0.683 5.461 0 2.731 0.683 6.144 1.365 8.192 0.683 3.413 2.048 6.827 4.096 8.875zM722.944 153.771c-59.392-79.189-175.445-92.843-210.944-95.573-35.499 2.731-150.869 16.384-210.944 95.573-70.997 94.208-58.709 194.56-49.835 223.915 2.048 6.827 4.096 13.653 7.509 19.797 9.557-6.827 20.48-12.971 32.085-19.115 31.403-15.019 70.997-29.355 114.005-39.595s90.112-17.067 136.533-17.067c23.893 0 48.469 2.048 71.68 5.461 57.344 9.557 111.957 36.181 154.965 65.536l0.683 0.683c2.048-5.461 4.096-10.923 5.461-16.384 6.827-29.355 19.797-129.024-51.2-223.232zM261.461 131.243c-7.509 6.827-14.336 14.336-21.163 21.845-9.557-5.461-21.163-12.288-28.672-19.115-11.605-9.557-16.384-25.259-6.144-27.307 0 0-48.469-48.469 35.499-83.285 85.333-35.499 179.541-25.259 225.963 6.144l6.144 4.096c-12.288 1.365-27.989 3.413-46.421 7.509-60.757 12.288-110.592 41.643-165.205 90.112zM601.429 41.131c-18.432-4.096-33.451-6.144-46.421-7.509l6.144-4.096c45.739-31.403 139.947-41.643 225.963-6.144 83.968 34.816 35.499 83.285 35.499 83.285 10.24 2.048 5.461 17.067-6.144 27.307-7.509 6.827-19.115 13.653-28.672 19.115-6.827-8.192-13.653-15.701-21.163-21.845-53.931-48.469-104.448-77.824-165.205-90.112z" />
<glyph unicode="&#xe955;" glyph-name="weixin" horiz-adv-x="1251" d="M293.178 764.548c-32.376 0-58.621-26.246-58.621-58.621s26.246-58.621 58.621-58.621c32.376 0 58.621 26.246 58.621 58.621v0c0 32.376-26.246 58.621-58.621 58.621v0zM1097.493 44.71c93.025 56.556 153.498 148.441 153.498 252.15 0 166.96-156.703 303.292-353.793 310.985-21.084 197.517-213.401 352.155-447.602 352.155-248.304 0-449.596-173.941-449.596-388.482 0-128.212 71.799-242.178 182.559-312.623 12.394-7.906-41.17-119.522-27.85-126.36 22.366-11.397 112.542 82.982 137.187 75.004 46.814-15.584 100.71-24.575 156.706-24.575 0.325 0 0.649 0 0.973 0.001h-0.050c0.119 0 0.259 0 0.4 0 28.6 0 56.662 2.305 84.010 6.74l-2.996-0.401c52.211-118.952 188.614-203.786 348.665-203.786 0.217 0 0.473-0.001 0.729-0.001 44.207 0 86.876 6.586 127.078 18.83l-3.086-0.808c12.821 3.846 99.72-72.226 111.473-67.311 19.588 7.978-35.828 97.797-18.306 108.481zM742.774 373.573c-21.597 0-39.105 17.508-39.105 39.105s17.508 39.105 39.105 39.105c21.597 0 39.105-17.508 39.105-39.105v0c0-21.597-17.508-39.105-39.105-39.105v0zM513.417 273.853c0.012-13.046 0.891-25.874 2.585-38.445l-0.163 1.477c-19.711-2.857-42.47-4.488-65.61-4.488-0.172 0-0.345 0-0.517 0h0.027c-0.341-0.001-0.746-0.001-1.15-0.001-56.513 0-110.696 9.972-160.887 28.251l3.268-1.041c-4.844 1.781-22.223 7.123-31.554 0-18.012-14.944-34.152-30.723-48.932-47.718l-0.429-0.504c6.909 17.065 11.804 36.846 13.753 57.484l0.065 0.852c1.567 15.813-22.58 26.924-27.352 30.13-91.885 61.827-150.578 164.61-150.578 271.239 0 187.047 180.779 339.049 403.725 339.049 208.202 0 379.578-132.201 401.374-302.010-191.534-26.782-337.625-166.177-337.625-334.277zM977.33 373.573c-21.597 0-39.105 17.508-39.105 39.105s17.508 39.105 39.105 39.105c21.597 0 39.105-17.508 39.105-39.105v0c0-21.597-17.508-39.105-39.105-39.105v0zM605.943 764.548c-32.376 0-58.621-26.246-58.621-58.621s26.246-58.621 58.621-58.621c32.376 0 58.621 26.246 58.621 58.621v0c0 32.376-26.246 58.621-58.621 58.621v0z" />
<glyph unicode="&#xe956;" glyph-name="zhihu" d="M512-64c-282.752 0-512 229.248-512 512s229.248 512 512 512 512-229.205 512-512c0-282.752-229.248-512-512-512zM512 917.333c-259.2 0-469.333-210.133-469.333-469.333s210.133-469.333 469.333-469.333 469.333 210.133 469.333 469.333-210.133 469.333-469.333 469.333zM534.315 414.549s0 48.896-23.552 51.371c-23.552 2.56-96.683 0-96.683 0v150.4h109.056s-1.237 50.133-22.272 50.133h-177.237l29.739 80.213s-44.629-2.517-60.715-31.317c-16.171-28.843-66.944-172.971-66.944-172.971s17.365-7.509 45.867 13.781c28.501 21.333 38.4 58.88 38.4 58.88l52.053 2.56 1.28-152.917s-90.453 1.28-109.099 0c-18.56-1.28-28.501-51.371-28.501-51.371h137.6s-12.416-85.248-47.104-146.645c-35.968-61.44-102.869-110.293-102.869-110.293s48.341-20.053 95.445 7.509c47.061 28.843 81.792 152.917 81.792 152.917l110.293-139.093s9.899 66.389-1.28 85.205c-12.373 18.773-76.8 93.995-76.8 93.995l-28.501-25.088 19.797 82.731h120.235zM562.816 670.208l-1.28-452.437h44.629l16.128-56.363 78.080 56.363h110.293v452.437h-247.893zM761.088 267.904h-52.053l-65.707-51.371-14.848 51.371h-13.653v350.933h146.261v-350.933z" />
<glyph unicode="&#xe957;" glyph-name="calendar2" d="M864-32h-704c-35.328 0-64 28.672-64 64v704c0 35.36 28.672 64 64 64h64v-32c0-53.024 42.976-96 96-96 52.992 0 96 42.976 96 96v32h192v-32c0-53.024 43.008-96 96-96s96 42.976 96 96v32h64c35.328 0 64-28.64 64-64v-704c0-35.328-28.672-64-64-64zM864 576h-704v-544h704v544zM320 416h-96v96h96v-96zM320 256h-96v96h96v-96zM320 96h-96v96h96v-96zM480 416h-96v96h96v-96zM480 256h-96v96h96v-96zM480 96h-96v96h96v-96zM640 416h-96v96h96v-96zM640 256h-96v96h96v-96zM640 96h-96v96h96v-96zM800 416h-96v96h96v-96zM800 256h-96v96h96v-96zM800 96h-96v96h96v-96zM703.008 704c-34.816 0-63.008 28.224-63.008 63.008v65.984c0 34.816 28.192 63.008 63.008 63.008s63.008-28.192 63.008-63.008v-65.984c0-34.784-28.192-63.008-63.008-63.008zM319.008 704c-34.816 0-63.008 28.224-63.008 63.008v65.984c0 34.816 28.192 63.008 63.008 63.008s63.008-28.192 63.008-63.008v-65.984c0-34.784-28.224-63.008-63.008-63.008z" />
<glyph unicode="&#xe958;" glyph-name="time" d="M512 848c-229.792 0-416-186.24-416-416s186.208-416 416-416c229.728 0 416 186.24 416 416s-186.24 416-416 416zM508.64 95.136c-185.568 0-336 150.432-336 336s150.432 336 336 336c185.536 0 336-150.432 336-336s-150.464-336-336-336zM605.76 411.808h-95.36v161.024c0 17.472-14.176 31.68-31.648 31.68-17.504 0-31.68-14.176-31.68-31.68v-192.672c0-17.504 14.176-31.648 31.68-31.648h127.008c17.504 0 31.68 14.144 31.68 31.648 0 17.472-14.176 31.648-31.68 31.648z" />
<glyph unicode="&#xe960;" glyph-name="download" d="M512 384l256 256h-192v256h-128v-256h-192zM744.726 488.728l-71.74-71.742 260.080-96.986-421.066-157.018-421.066 157.018 260.080 96.986-71.742 71.742-279.272-104.728v-256l512-192 512 192v256z" />
<glyph unicode="&#xe961;" glyph-name="upload" d="M448 384h128v256h192l-256 256-256-256h192zM640 528v-98.712l293.066-109.288-421.066-157.018-421.066 157.018 293.066 109.288v98.712l-384-144v-256l512-192 512 192v256z" />
<glyph unicode="&#xe967;" glyph-name="undo2" d="M761.862-64c113.726 206.032 132.888 520.306-313.862 509.824v-253.824l-384 384 384 384v-248.372c534.962 13.942 594.57-472.214 313.862-775.628z" />
<glyph unicode="&#xe968;" glyph-name="redo2" d="M576 711.628v248.372l384-384-384-384v253.824c-446.75 10.482-427.588-303.792-313.86-509.824-280.712 303.414-221.1 789.57 313.86 775.628z" />
<glyph unicode="&#xe969;" glyph-name="forward" d="M262.14 960c-113.728-206.032-132.89-520.304 313.86-509.824v253.824l384-384-384-384v248.372c-534.96-13.942-594.572 472.214-313.86 775.628z" />
<glyph unicode="&#xe96a;" glyph-name="reply" d="M448 184.372v-248.372l-384 384 384 384v-253.824c446.75-10.48 427.588 303.792 313.862 509.824 280.71-303.414 221.1-789.57-313.862-775.628z" />
</font>
</defs>
</svg>
